<?xml version="1.0" standalone="no"?><!DOCTYPE svg PUBLIC "-//W3C//DTD SVG 1.1//EN" "http://www.w3.org/Graphics/SVG/1.1/DTD/svg11.dtd" ><svg version="1.1" xmlns="http://www.w3.org/2000/svg"><defs><font horiz-adv-x="0" id="font"><font-face ascent="1638" bbox="-354 -356 2327 1839" cap-height="1434" descent="-410" font-family="BBVA Web Light" font-stretch="normal" font-style="normal" font-weight="400" units-per-em="2048" x-height="1067" /><missing-glyph horiz-adv-x="1024" /><glyph glyph-name=".null" horiz-adv-x="0" /><glyph d="M61 45 565 1434H694L1192 45V0H1096L934 449H313L154 0H61ZM344 539H903L627 1313H623Z" glyph-name="A" horiz-adv-x="1253" unicode="A" /><glyph d="M934 451H360L125 0H37V45L772 1434H1790V1341H1044V784H1606V694H1044V90H1819V0H934ZM408 541H934V1341H829Z" glyph-name="AE" horiz-adv-x="1888" unicode="&#198;" /><glyph d="M61 45 565 1434H694L1192 45V0H1096L934 449H313L154 0H61ZM344 539H903L627 1313H623ZM588 1511 709 1704H807V1665L651 1481H588Z" glyph-name="Aacute" horiz-adv-x="1253" unicode="&#193;" /><glyph d="M61 45 565 1434H694L1192 45V0H1096L934 449H313L154 0H61ZM344 539H903L627 1313H623ZM406 1518 588 1706H670L848 1518V1481H787L625 1624L465 1481H406Z" glyph-name="Acircumflex" horiz-adv-x="1253" unicode="&#194;" /><glyph d="M61 45 565 1434H694L1192 45V0H1096L934 449H313L154 0H61ZM344 539H903L627 1313H623ZM481 1501Q452 1501 432 1521.5Q412 1542 412 1571Q412 1599 432 1619.5Q452 1640 481 1640Q510 1640 530.5 1619.5Q551 1599 551 1571Q551 1542 530.5 1521.5Q510 1501 481 1501ZM774 1501Q746 1501 726.5 1521.5Q707 1542 707 1571Q707 1599 726.5 1619.5Q746 1640 774 1640Q803 1640 823.5 1619.5Q844 1599 844 1571Q844 1542 823.5 1521.5Q803 1501 774 1501Z" glyph-name="Adieresis" horiz-adv-x="1253" unicode="&#196;" /><glyph d="M61 45 565 1434H694L1192 45V0H1096L934 449H313L154 0H61ZM344 539H903L627 1313H623ZM609 1481 451 1665V1704H553L670 1511V1481Z" glyph-name="Agrave" horiz-adv-x="1253" unicode="&#192;" /><glyph d="M61 45 565 1434H694L1192 45V0H1096L934 449H313L154 0H61ZM344 539H903L627 1313H623ZM629 1489Q594 1489 561.5 1501Q529 1513 504 1535.5Q479 1558 464 1590Q449 1622 449 1663Q449 1703 464 1735.5Q479 1768 504 1791Q529 1814 561.5 1826.5Q594 1839 629 1839Q663 1839 695.5 1826.5Q728 1814 752.5 1791Q777 1768 792 1735.5Q807 1703 807 1663Q807 1622 792 1590Q777 1558 752.5 1535.5Q728 1513 695.5 1501Q663 1489 629 1489ZM629 1556Q672 1556 702.5 1584.5Q733 1613 733 1663Q733 1687 725 1707Q717 1727 702.5 1741.5Q688 1756 669 1764Q650 1772 629 1772Q584 1772 554 1741.5Q524 1711 524 1663Q524 1613 554 1584.5Q584 1556 629 1556Z" glyph-name="Aring" horiz-adv-x="1253" unicode="&#197;" /><glyph d="M61 45 565 1434H694L1192 45V0H1096L934 449H313L154 0H61ZM344 539H903L627 1313H623ZM367 1538Q372 1565 384.5 1589Q397 1613 416 1631.5Q435 1650 460 1660.5Q485 1671 516 1671Q550 1671 579.5 1658Q609 1645 636 1630Q663 1615 687 1602Q711 1589 733 1589Q768 1589 789.5 1613.5Q811 1638 817 1675H887V1638Q881 1610 868.5 1585.5Q856 1561 837.5 1543Q819 1525 794.5 1515Q770 1505 739 1505Q704 1505 674 1517.5Q644 1530 617.5 1545Q591 1560 567.5 1572.5Q544 1585 522 1585Q487 1585 465 1562Q443 1539 436 1499H367Z" glyph-name="Atilde" horiz-adv-x="1253" unicode="&#195;" /><glyph d="M176 1434H582Q677 1434 760 1416.5Q843 1399 904.5 1358Q966 1317 1001 1248Q1036 1179 1036 1077Q1036 1004 1016.5 952Q997 900 962.5 862.5Q928 825 881.5 800.5Q835 776 782 758V756Q849 741 908 716.5Q967 692 1011 650Q1055 608 1080.5 546Q1106 484 1106 395Q1106 291 1070 216.5Q1034 142 968.5 94Q903 46 812.5 23Q722 0 614 0H176ZM612 90Q694 90 764 107.5Q834 125 885 162.5Q936 200 964.5 258.5Q993 317 993 399Q993 481 965 539.5Q937 598 884.5 635Q832 672 757 689.5Q682 707 588 707H285V90ZM575 797Q647 797 711 811Q775 825 823 857.5Q871 890 898.5 942.5Q926 995 926 1073Q926 1152 898.5 1204Q871 1256 823.5 1287Q776 1318 713 1330.5Q650 1343 580 1343H285V797Z" glyph-name="B" horiz-adv-x="1188" unicode="B" /><glyph d="M717 -8Q580 -8 466 39.5Q352 87 270.5 179.5Q189 272 143.5 408Q98 544 98 721Q98 898 148.5 1032.5Q199 1167 285 1258Q371 1349 486 1395.5Q601 1442 729 1442Q814 1442 878 1431.5Q942 1421 992.5 1402Q1043 1383 1084 1356.5Q1125 1330 1165 1298V1210H1114Q1084 1240 1049 1266Q1014 1292 969 1311.5Q924 1331 867 1342.5Q810 1354 735 1354Q624 1354 528 1314Q432 1274 361.5 1195Q291 1116 251 998Q211 880 211 725Q211 567 247 446.5Q283 326 349 244.5Q415 163 509 121.5Q603 80 719 80Q800 80 864 94Q928 108 979 131.5Q1030 155 1070 185.5Q1110 216 1143 250H1190V168Q1153 133 1107.5 101.5Q1062 70 1004 45.5Q946 21 875 6.5Q804 -8 717 -8Z" glyph-name="C" horiz-adv-x="1262" unicode="C" /><glyph d="M702 -8V-82Q780 -85 822 -120.5Q864 -156 864 -221Q864 -253 850.5 -278.5Q837 -304 814 -321Q791 -338 760 -347Q729 -356 694 -356Q645 -356 610 -344Q575 -332 549 -315V-252H592Q604 -264 627.5 -273.5Q651 -283 688 -283Q726 -283 751 -267Q776 -251 776 -219Q776 -188 753 -169Q730 -150 674 -150H627V-2Q508 13 411 67Q314 121 244 212.5Q174 304 136 431.5Q98 559 98 721Q98 898 148.5 1032.5Q199 1167 285 1258Q371 1349 486 1395.5Q601 1442 729 1442Q814 1442 878 1431.5Q942 1421 992.5 1402Q1043 1383 1084 1356.5Q1125 1330 1165 1298V1210H1114Q1084 1240 1049 1266Q1014 1292 969 1311.5Q924 1331 867 1342.5Q810 1354 735 1354Q624 1354 528 1314Q432 1274 361.5 1195Q291 1116 251 998Q211 880 211 725Q211 567 247 446.5Q283 326 349 244.5Q415 163 509 121.5Q603 80 719 80Q800 80 864 94Q928 108 979 131.5Q1030 155 1070 185.5Q1110 216 1143 250H1190V168Q1153 133 1107.5 101.5Q1062 70 1004 45.5Q946 21 875 6.5Q804 -8 717 -8Z" glyph-name="Ccedilla" horiz-adv-x="1262" unicode="&#199;" /><glyph d="M176 1434H559Q736 1434 871 1394Q1006 1354 1097 1267.5Q1188 1181 1234 1045.5Q1280 910 1280 719Q1280 528 1234 392Q1188 256 1097 169Q1006 82 870.5 41Q735 0 557 0H176ZM557 90Q712 90 827 124.5Q942 159 1017.5 234Q1093 309 1130 428Q1167 547 1167 717Q1167 886 1130 1005Q1093 1124 1017.5 1199Q942 1274 827 1308.5Q712 1343 557 1343H285V90Z" glyph-name="D" horiz-adv-x="1366" unicode="D" /><glyph d="M176 1434H1030V1341H285V784H848V694H285V90H1059V0H176Z" glyph-name="E" horiz-adv-x="1128" unicode="E" /><glyph d="M176 1434H1030V1341H285V784H848V694H285V90H1059V0H176ZM580 1511 701 1704H799V1665L643 1481H580Z" glyph-name="Eacute" horiz-adv-x="1128" unicode="&#201;" /><glyph d="M176 1434H1030V1341H285V784H848V694H285V90H1059V0H176ZM396 1518 578 1706H660L838 1518V1481H777L615 1624L455 1481H396Z" glyph-name="Ecircumflex" horiz-adv-x="1128" unicode="&#202;" /><glyph d="M176 1434H1030V1341H285V784H848V694H285V90H1059V0H176ZM471 1501Q442 1501 422 1521.5Q402 1542 402 1571Q402 1599 422 1619.5Q442 1640 471 1640Q500 1640 520.5 1619.5Q541 1599 541 1571Q541 1542 520.5 1521.5Q500 1501 471 1501ZM764 1501Q736 1501 716.5 1521.5Q697 1542 697 1571Q697 1599 716.5 1619.5Q736 1640 764 1640Q793 1640 813.5 1619.5Q834 1599 834 1571Q834 1542 813.5 1521.5Q793 1501 764 1501Z" glyph-name="Edieresis" horiz-adv-x="1128" unicode="&#203;" /><glyph d="M176 1434H1030V1341H285V784H848V694H285V90H1059V0H176ZM600 1481 442 1665V1704H544L661 1511V1481Z" glyph-name="Egrave" horiz-adv-x="1128" unicode="&#200;" /><glyph d="M27 764H176V1434H559Q736 1434 871 1394Q1006 1354 1097 1267.5Q1188 1181 1234 1045.5Q1280 910 1280 719Q1280 528 1234 392Q1188 256 1097 169Q1006 82 870.5 41Q735 0 557 0H176V674H27ZM557 90Q712 90 827 124.5Q942 159 1017.5 234Q1093 309 1130 428Q1167 547 1167 717Q1167 886 1130 1005Q1093 1124 1017.5 1199Q942 1274 827 1308.5Q712 1343 557 1343H285V764H719V674H285V90Z" glyph-name="Eth" horiz-adv-x="1366" unicode="&#208;" /><glyph d="M334 569Q363 328 474 204Q585 80 762 80Q830 80 883 92Q936 104 977 123.5Q1018 143 1050 167Q1082 191 1108 215H1161V145Q1129 115 1091 87.5Q1053 60 1005 39Q957 18 896.5 5Q836 -8 760 -8Q654 -8 563 29Q472 66 401.5 138.5Q331 211 285 319Q239 427 223 569H74V649H217Q215 666 215 684Q215 702 215 721Q215 739 215 757.5Q215 776 217 795H74V877H225Q244 1014 294 1119.5Q344 1225 417 1296.5Q490 1368 580.5 1405Q671 1442 772 1442Q840 1442 892.5 1433Q945 1424 987 1408Q1029 1392 1064 1371Q1099 1350 1133 1325V1243H1083Q1055 1264 1025.5 1284Q996 1304 960.5 1319.5Q925 1335 880.5 1344.5Q836 1354 778 1354Q692 1354 618.5 1323.5Q545 1293 487.5 1233Q430 1173 391 1083.5Q352 994 336 877H852L836 795H328Q326 778 326 760Q326 742 326 725Q326 705 326 686.5Q326 668 328 649H809L795 569Z" glyph-name="Euro" horiz-adv-x="1229" unicode="&#8364;" /><glyph d="M176 0V1434H1030V1341H285V748H838V657H285V0Z" glyph-name="F" horiz-adv-x="1100" unicode="F" /><glyph d="M745 -8Q594 -8 472 37.5Q350 83 264.5 174.5Q179 266 132.5 402.5Q86 539 86 721Q86 902 138 1037.5Q190 1173 281 1263Q372 1353 494 1397.5Q616 1442 756 1442Q831 1442 892.5 1433.5Q954 1425 1005 1409.5Q1056 1394 1098 1373.5Q1140 1353 1176 1329V1235H1122Q1067 1289 978.5 1321.5Q890 1354 756 1354Q637 1354 535.5 1316.5Q434 1279 360 1201.5Q286 1124 244.5 1005.5Q203 887 203 725Q203 563 239.5 442Q276 321 345.5 240.5Q415 160 516 120Q617 80 745 80Q815 80 870 86.5Q925 93 968.5 104.5Q1012 116 1046.5 130.5Q1081 145 1110 160V612H793V702H1219V109Q1182 87 1136 66Q1090 45 1032 28.5Q974 12 903 2Q832 -8 745 -8Z" glyph-name="G" horiz-adv-x="1372" unicode="G" /><glyph d="M176 0V1434H285V784H1114V1434H1223V0H1114V694H285V0Z" glyph-name="H" horiz-adv-x="1399" unicode="H" /><glyph d="M180 0V1434H291V0Z" glyph-name="I" horiz-adv-x="471" unicode="I" /><glyph d="M180 0V1434H291V0ZM198 1511 319 1704H417V1665L261 1481H198Z" glyph-name="Iacute" horiz-adv-x="471" unicode="&#205;" /><glyph d="M180 0V1434H291V0ZM16 1518 198 1706H280L458 1518V1481H397L235 1624L75 1481H16Z" glyph-name="Icircumflex" horiz-adv-x="471" unicode="&#206;" /><glyph d="M180 0V1434H291V0ZM91 1501Q62 1501 42 1521.5Q22 1542 22 1571Q22 1599 42 1619.5Q62 1640 91 1640Q120 1640 140.5 1619.5Q161 1599 161 1571Q161 1542 140.5 1521.5Q120 1501 91 1501ZM384 1501Q356 1501 336.5 1521.5Q317 1542 317 1571Q317 1599 336.5 1619.5Q356 1640 384 1640Q413 1640 433.5 1619.5Q454 1599 454 1571Q454 1542 433.5 1521.5Q413 1501 384 1501Z" glyph-name="Idieresis" horiz-adv-x="471" unicode="&#207;" /><glyph d="M180 0V1434H291V0ZM218 1481 60 1665V1704H162L279 1511V1481Z" glyph-name="Igrave" horiz-adv-x="471" unicode="&#204;" /><glyph d="M315 -10Q216 -10 149.5 12Q83 34 35 66V154H82Q97 139 117 125.5Q137 112 164 101.5Q191 91 227 84.5Q263 78 309 78Q441 78 502 143Q563 208 563 330V1434H674V328Q674 249 652 186Q630 123 586 79.5Q542 36 474 13Q406 -10 315 -10Z" glyph-name="J" horiz-adv-x="842" unicode="J" /><glyph d="M176 1434H285V610L1049 1434H1135V1391L629 848L1186 43V0H1090L557 772L285 483V0H176Z" glyph-name="K" horiz-adv-x="1266" unicode="K" /><glyph d="M176 0V1434H285V90H1032V0Z" glyph-name="L" horiz-adv-x="1104" unicode="L" /><glyph d="M178 0V543L4 469V561L178 635V1434H287V682L774 891V801L287 590V90H1034V0Z" glyph-name="Lslash" horiz-adv-x="1106" unicode="&#321;" /><glyph d="M176 1434H346L834 166H838L1323 1434H1489V0H1378V1303H1368L866 0H786L287 1303H279V0H176Z" glyph-name="M" horiz-adv-x="1663" unicode="M" /><glyph d="M176 1434H311L1108 197H1110V1434H1214V0H1110L283 1288H279V0H176Z" glyph-name="N" horiz-adv-x="1389" unicode="N" /><glyph d="M176 1434H311L1108 197H1110V1434H1214V0H1110L283 1288H279V0H176ZM455 1538Q460 1565 472.5 1589Q485 1613 504 1631.5Q523 1650 548 1660.5Q573 1671 604 1671Q638 1671 667.5 1658Q697 1645 724 1630Q751 1615 775 1602Q799 1589 821 1589Q856 1589 877.5 1613.5Q899 1638 905 1675H975V1638Q969 1610 956.5 1585.5Q944 1561 925.5 1543Q907 1525 882.5 1515Q858 1505 827 1505Q792 1505 762 1517.5Q732 1530 705.5 1545Q679 1560 655.5 1572.5Q632 1585 610 1585Q575 1585 553 1562Q531 1539 524 1499H455Z" glyph-name="Ntilde" horiz-adv-x="1389" unicode="&#209;" /><glyph d="M731 -8Q599 -8 481.5 39Q364 86 276.5 178Q189 270 137.5 405Q86 540 86 717Q86 893 137.5 1028Q189 1163 276.5 1255Q364 1347 481.5 1394.5Q599 1442 731 1442Q818 1442 899.5 1421Q981 1400 1052 1358.5Q1123 1317 1182 1255.5Q1241 1194 1283 1113.5Q1325 1033 1348.5 933.5Q1372 834 1372 717Q1372 599 1348.5 499.5Q1325 400 1283 319.5Q1241 239 1182 178Q1123 117 1052 75.5Q981 34 899.5 13Q818 -8 731 -8ZM731 78Q842 78 939 118.5Q1036 159 1107 239Q1178 319 1219 438Q1260 557 1260 715Q1260 872 1219 992Q1178 1112 1107 1193Q1036 1274 939 1315Q842 1356 731 1356Q618 1356 521 1315Q424 1274 352.5 1193Q281 1112 240 992Q199 872 199 715Q199 557 240 438Q281 319 352.5 239Q424 159 521 118.5Q618 78 731 78Z" glyph-name="O" horiz-adv-x="1458" unicode="O" /><glyph d="M807 0Q630 0 495 40Q360 80 269 166Q178 252 132 388Q86 524 86 715Q86 905 132 1041.5Q178 1178 269 1265Q360 1352 495.5 1393Q631 1434 809 1434H1862V1341H1137V784H1677V694H1137V90H1890V0ZM809 1341Q654 1341 539 1307Q424 1273 348.5 1198.5Q273 1124 236 1005Q199 886 199 717Q199 547 236 428Q273 309 348.5 234Q424 159 539 124.5Q654 90 809 90H1026V1341Z" glyph-name="OE" horiz-adv-x="1960" unicode="&#338;" /><glyph d="M731 -8Q599 -8 481.5 39Q364 86 276.5 178Q189 270 137.5 405Q86 540 86 717Q86 893 137.5 1028Q189 1163 276.5 1255Q364 1347 481.5 1394.5Q599 1442 731 1442Q818 1442 899.5 1421Q981 1400 1052 1358.5Q1123 1317 1182 1255.5Q1241 1194 1283 1113.5Q1325 1033 1348.5 933.5Q1372 834 1372 717Q1372 599 1348.5 499.5Q1325 400 1283 319.5Q1241 239 1182 178Q1123 117 1052 75.5Q981 34 899.5 13Q818 -8 731 -8ZM731 78Q842 78 939 118.5Q1036 159 1107 239Q1178 319 1219 438Q1260 557 1260 715Q1260 872 1219 992Q1178 1112 1107 1193Q1036 1274 939 1315Q842 1356 731 1356Q618 1356 521 1315Q424 1274 352.5 1193Q281 1112 240 992Q199 872 199 715Q199 557 240 438Q281 319 352.5 239Q424 159 521 118.5Q618 78 731 78ZM688 1511 809 1704H907V1665L751 1481H688Z" glyph-name="Oacute" horiz-adv-x="1458" unicode="&#211;" /><glyph d="M731 -8Q599 -8 481.5 39Q364 86 276.5 178Q189 270 137.5 405Q86 540 86 717Q86 893 137.5 1028Q189 1163 276.5 1255Q364 1347 481.5 1394.5Q599 1442 731 1442Q818 1442 899.5 1421Q981 1400 1052 1358.5Q1123 1317 1182 1255.5Q1241 1194 1283 1113.5Q1325 1033 1348.5 933.5Q1372 834 1372 717Q1372 599 1348.5 499.5Q1325 400 1283 319.5Q1241 239 1182 178Q1123 117 1052 75.5Q981 34 899.5 13Q818 -8 731 -8ZM731 78Q842 78 939 118.5Q1036 159 1107 239Q1178 319 1219 438Q1260 557 1260 715Q1260 872 1219 992Q1178 1112 1107 1193Q1036 1274 939 1315Q842 1356 731 1356Q618 1356 521 1315Q424 1274 352.5 1193Q281 1112 240 992Q199 872 199 715Q199 557 240 438Q281 319 352.5 239Q424 159 521 118.5Q618 78 731 78ZM506 1518 688 1706H770L948 1518V1481H887L725 1624L565 1481H506Z" glyph-name="Ocircumflex" horiz-adv-x="1458" unicode="&#212;" /><glyph d="M731 -8Q599 -8 481.5 39Q364 86 276.5 178Q189 270 137.5 405Q86 540 86 717Q86 893 137.5 1028Q189 1163 276.5 1255Q364 1347 481.5 1394.5Q599 1442 731 1442Q818 1442 899.5 1421Q981 1400 1052 1358.5Q1123 1317 1182 1255.5Q1241 1194 1283 1113.5Q1325 1033 1348.5 933.5Q1372 834 1372 717Q1372 599 1348.5 499.5Q1325 400 1283 319.5Q1241 239 1182 178Q1123 117 1052 75.5Q981 34 899.5 13Q818 -8 731 -8ZM731 78Q842 78 939 118.5Q1036 159 1107 239Q1178 319 1219 438Q1260 557 1260 715Q1260 872 1219 992Q1178 1112 1107 1193Q1036 1274 939 1315Q842 1356 731 1356Q618 1356 521 1315Q424 1274 352.5 1193Q281 1112 240 992Q199 872 199 715Q199 557 240 438Q281 319 352.5 239Q424 159 521 118.5Q618 78 731 78ZM581 1501Q552 1501 532 1521.5Q512 1542 512 1571Q512 1599 532 1619.5Q552 1640 581 1640Q610 1640 630.5 1619.5Q651 1599 651 1571Q651 1542 630.5 1521.5Q610 1501 581 1501ZM874 1501Q846 1501 826.5 1521.5Q807 1542 807 1571Q807 1599 826.5 1619.5Q846 1640 874 1640Q903 1640 923.5 1619.5Q944 1599 944 1571Q944 1542 923.5 1521.5Q903 1501 874 1501Z" glyph-name="Odieresis" horiz-adv-x="1458" unicode="&#214;" /><glyph d="M731 -8Q599 -8 481.5 39Q364 86 276.5 178Q189 270 137.5 405Q86 540 86 717Q86 893 137.5 1028Q189 1163 276.5 1255Q364 1347 481.5 1394.5Q599 1442 731 1442Q818 1442 899.5 1421Q981 1400 1052 1358.5Q1123 1317 1182 1255.5Q1241 1194 1283 1113.5Q1325 1033 1348.5 933.5Q1372 834 1372 717Q1372 599 1348.5 499.5Q1325 400 1283 319.5Q1241 239 1182 178Q1123 117 1052 75.5Q981 34 899.5 13Q818 -8 731 -8ZM731 78Q842 78 939 118.5Q1036 159 1107 239Q1178 319 1219 438Q1260 557 1260 715Q1260 872 1219 992Q1178 1112 1107 1193Q1036 1274 939 1315Q842 1356 731 1356Q618 1356 521 1315Q424 1274 352.5 1193Q281 1112 240 992Q199 872 199 715Q199 557 240 438Q281 319 352.5 239Q424 159 521 118.5Q618 78 731 78ZM709 1481 551 1665V1704H653L770 1511V1481Z" glyph-name="Ograve" horiz-adv-x="1458" unicode="&#210;" /><glyph d="M731 -8Q620 -8 519.5 25Q419 58 338 123L203 -55H123V-23L274 178Q186 271 136 405Q86 539 86 717Q86 893 137.5 1028Q189 1163 276.5 1255Q364 1347 481.5 1394.5Q599 1442 731 1442Q843 1442 944 1407.5Q1045 1373 1128 1305L1255 1473H1335V1440L1190 1247Q1275 1154 1323.5 1022Q1372 890 1372 717Q1372 599 1348.5 499.5Q1325 400 1283 319.5Q1241 239 1182 178Q1123 117 1052 75.5Q981 34 899.5 13Q818 -8 731 -8ZM199 715Q199 565 234 450.5Q269 336 334 256L1071 1229Q1003 1292 916.5 1324Q830 1356 731 1356Q618 1356 521 1315Q424 1274 352.5 1193Q281 1112 240 992Q199 872 199 715ZM731 78Q842 78 939 118.5Q1036 159 1107 239Q1178 319 1219 438Q1260 557 1260 715Q1260 861 1225 974Q1190 1087 1128 1167L393 195Q461 136 546.5 107Q632 78 731 78Z" glyph-name="Oslash" horiz-adv-x="1458" unicode="&#216;" /><glyph d="M731 -8Q599 -8 481.5 39Q364 86 276.5 178Q189 270 137.5 405Q86 540 86 717Q86 893 137.5 1028Q189 1163 276.5 1255Q364 1347 481.5 1394.5Q599 1442 731 1442Q818 1442 899.5 1421Q981 1400 1052 1358.5Q1123 1317 1182 1255.5Q1241 1194 1283 1113.5Q1325 1033 1348.5 933.5Q1372 834 1372 717Q1372 599 1348.5 499.5Q1325 400 1283 319.5Q1241 239 1182 178Q1123 117 1052 75.5Q981 34 899.5 13Q818 -8 731 -8ZM731 78Q842 78 939 118.5Q1036 159 1107 239Q1178 319 1219 438Q1260 557 1260 715Q1260 872 1219 992Q1178 1112 1107 1193Q1036 1274 939 1315Q842 1356 731 1356Q618 1356 521 1315Q424 1274 352.5 1193Q281 1112 240 992Q199 872 199 715Q199 557 240 438Q281 319 352.5 239Q424 159 521 118.5Q618 78 731 78ZM467 1538Q472 1565 484.5 1589Q497 1613 516 1631.5Q535 1650 560 1660.5Q585 1671 616 1671Q650 1671 679.5 1658Q709 1645 736 1630Q763 1615 787 1602Q811 1589 833 1589Q868 1589 889.5 1613.5Q911 1638 917 1675H987V1638Q981 1610 968.5 1585.5Q956 1561 937.5 1543Q919 1525 894.5 1515Q870 1505 839 1505Q804 1505 774 1517.5Q744 1530 717.5 1545Q691 1560 667.5 1572.5Q644 1585 622 1585Q587 1585 565 1562Q543 1539 536 1499H467Z" glyph-name="Otilde" horiz-adv-x="1458" unicode="&#213;" /><glyph d="M176 1434H549Q664 1434 758 1412.5Q852 1391 918.5 1342.5Q985 1294 1021 1216Q1057 1138 1057 1024Q1057 908 1022 827.5Q987 747 921 696.5Q855 646 760.5 623Q666 600 547 600H285V0H176ZM285 688H547Q644 688 718.5 705.5Q793 723 843.5 762Q894 801 920 864.5Q946 928 946 1020Q946 1112 918 1174Q890 1236 838.5 1273.5Q787 1311 713 1327Q639 1343 547 1343H285Z" glyph-name="P" horiz-adv-x="1130" unicode="P" /><glyph d="M635 -10Q510 21 409 79Q308 137 236 226Q164 315 125 436.5Q86 558 86 717Q86 894 137.5 1029Q189 1164 276.5 1256Q364 1348 481.5 1395Q599 1442 731 1442Q818 1442 899.5 1421Q981 1400 1052 1358.5Q1123 1317 1182 1256Q1241 1195 1283 1114.5Q1325 1034 1348.5 934.5Q1372 835 1372 717Q1372 564 1332.5 441.5Q1293 319 1224 230Q1155 141 1061 86.5Q967 32 858 14V10L1397 -96V-186H1335ZM733 76Q845 76 941.5 116.5Q1038 157 1108.5 237Q1179 317 1219.5 437Q1260 557 1260 715Q1260 874 1219 994Q1178 1114 1107 1194.5Q1036 1275 939 1315.5Q842 1356 731 1356Q618 1356 521 1315.5Q424 1275 352.5 1194.5Q281 1114 240 994Q199 874 199 715Q199 557 240 437Q281 317 353 237Q425 157 522.5 116.5Q620 76 733 76Z" glyph-name="Q" horiz-adv-x="1466" unicode="Q" /><glyph d="M688 655Q629 649 563 649H291V0H180V1434H563Q672 1434 762.5 1413.5Q853 1393 918 1346.5Q983 1300 1019 1226Q1055 1152 1055 1044Q1055 967 1037 906.5Q1019 846 985.5 801Q952 756 903.5 726Q855 696 795 678L1137 43V0H1042ZM291 737H559Q649 737 720.5 751Q792 765 841.5 799.5Q891 834 917.5 892.5Q944 951 944 1040Q944 1127 916 1185Q888 1243 837 1278.5Q786 1314 715 1328.5Q644 1343 559 1343H291Z" glyph-name="R" horiz-adv-x="1229" unicode="R" /><glyph d="M489 -8Q409 -8 343 2.5Q277 13 223 31.5Q169 50 125.5 74.5Q82 99 47 127V223H96Q124 194 160.5 168.5Q197 143 244 123Q291 103 351 91.5Q411 80 487 80Q569 80 637.5 97.5Q706 115 755 152Q804 189 831 247.5Q858 306 858 387Q858 466 829 516Q800 566 749.5 599Q699 632 631 652.5Q563 673 485 694Q389 719 314 749.5Q239 780 187.5 823.5Q136 867 109 928.5Q82 990 82 1077Q82 1155 110 1221.5Q138 1288 192.5 1337Q247 1386 328 1414Q409 1442 514 1442Q581 1442 637 1433.5Q693 1425 740 1410Q787 1395 825.5 1374.5Q864 1354 897 1329V1237H846Q817 1263 784.5 1284.5Q752 1306 712.5 1321.5Q673 1337 624.5 1345.5Q576 1354 516 1354Q429 1354 366.5 1333.5Q304 1313 264 1276.5Q224 1240 205 1191Q186 1142 186 1085Q186 1011 210.5 963.5Q235 916 278.5 884.5Q322 853 382.5 832.5Q443 812 516 793Q624 764 708 733.5Q792 703 849 659Q906 615 935.5 552Q965 489 965 395Q965 291 930 215Q895 139 832 89.5Q769 40 681.5 16Q594 -8 489 -8Z" glyph-name="S" horiz-adv-x="1044" unicode="S" /><glyph d="M489 -8Q409 -8 343 2.5Q277 13 223 31.5Q169 50 125.5 74.5Q82 99 47 127V223H96Q124 194 160.5 168.5Q197 143 244 123Q291 103 351 91.5Q411 80 487 80Q569 80 637.5 97.5Q706 115 755 152Q804 189 831 247.5Q858 306 858 387Q858 466 829 516Q800 566 749.5 599Q699 632 631 652.5Q563 673 485 694Q389 719 314 749.5Q239 780 187.5 823.5Q136 867 109 928.5Q82 990 82 1077Q82 1155 110 1221.5Q138 1288 192.5 1337Q247 1386 328 1414Q409 1442 514 1442Q581 1442 637 1433.5Q693 1425 740 1410Q787 1395 825.5 1374.5Q864 1354 897 1329V1237H846Q817 1263 784.5 1284.5Q752 1306 712.5 1321.5Q673 1337 624.5 1345.5Q576 1354 516 1354Q429 1354 366.5 1333.5Q304 1313 264 1276.5Q224 1240 205 1191Q186 1142 186 1085Q186 1011 210.5 963.5Q235 916 278.5 884.5Q322 853 382.5 832.5Q443 812 516 793Q624 764 708 733.5Q792 703 849 659Q906 615 935.5 552Q965 489 965 395Q965 291 930 215Q895 139 832 89.5Q769 40 681.5 16Q594 -8 489 -8ZM735 1669 553 1481H471L293 1669V1706H352L514 1563L676 1706H735Z" glyph-name="Scaron" horiz-adv-x="1042" unicode="&#352;" /><glyph d="M514 0V1343H45V1434H1092V1343H625V0Z" glyph-name="T" horiz-adv-x="1137" unicode="T" /><glyph d="M176 1434H285V1141H549Q664 1141 758 1120.5Q852 1100 918.5 1052.5Q985 1005 1021 928.5Q1057 852 1057 741Q1057 628 1022 549.5Q987 471 921 422.5Q855 374 760.5 352Q666 330 547 330H285V0H176ZM285 418H547Q644 418 718.5 434Q793 450 843.5 487.5Q894 525 920 586.5Q946 648 946 739Q946 830 918 889.5Q890 949 838.5 984.5Q787 1020 713 1034.5Q639 1049 547 1049H285Z" glyph-name="Thorn" horiz-adv-x="1130" unicode="&#222;" /><glyph d="M702 82Q787 82 861.5 100.5Q936 119 991.5 164.5Q1047 210 1079.5 287Q1112 364 1112 481V1434H1217V485Q1217 350 1177.5 256Q1138 162 1068 103.5Q998 45 902.5 18.5Q807 -8 696 -8Q586 -8 489.5 18Q393 44 321 102.5Q249 161 207.5 255Q166 349 166 485V1434H274V481Q274 366 308 289Q342 212 400.5 166Q459 120 537 101Q615 82 702 82Z" glyph-name="U" horiz-adv-x="1380" unicode="U" /><glyph d="M702 82Q787 82 861.5 100.5Q936 119 991.5 164.5Q1047 210 1079.5 287Q1112 364 1112 481V1434H1217V485Q1217 350 1177.5 256Q1138 162 1068 103.5Q998 45 902.5 18.5Q807 -8 696 -8Q586 -8 489.5 18Q393 44 321 102.5Q249 161 207.5 255Q166 349 166 485V1434H274V481Q274 366 308 289Q342 212 400.5 166Q459 120 537 101Q615 82 702 82ZM653 1511 774 1704H872V1665L716 1481H653Z" glyph-name="Uacute" horiz-adv-x="1380" unicode="&#218;" /><glyph d="M702 82Q787 82 861.5 100.5Q936 119 991.5 164.5Q1047 210 1079.5 287Q1112 364 1112 481V1434H1217V485Q1217 350 1177.5 256Q1138 162 1068 103.5Q998 45 902.5 18.5Q807 -8 696 -8Q586 -8 489.5 18Q393 44 321 102.5Q249 161 207.5 255Q166 349 166 485V1434H274V481Q274 366 308 289Q342 212 400.5 166Q459 120 537 101Q615 82 702 82ZM469 1518 651 1706H733L911 1518V1481H850L688 1624L528 1481H469Z" glyph-name="Ucircumflex" horiz-adv-x="1380" unicode="&#219;" /><glyph d="M702 82Q787 82 861.5 100.5Q936 119 991.5 164.5Q1047 210 1079.5 287Q1112 364 1112 481V1434H1217V485Q1217 350 1177.5 256Q1138 162 1068 103.5Q998 45 902.5 18.5Q807 -8 696 -8Q586 -8 489.5 18Q393 44 321 102.5Q249 161 207.5 255Q166 349 166 485V1434H274V481Q274 366 308 289Q342 212 400.5 166Q459 120 537 101Q615 82 702 82ZM544 1501Q515 1501 495 1521.5Q475 1542 475 1571Q475 1599 495 1619.5Q515 1640 544 1640Q573 1640 593.5 1619.5Q614 1599 614 1571Q614 1542 593.5 1521.5Q573 1501 544 1501ZM837 1501Q809 1501 789.5 1521.5Q770 1542 770 1571Q770 1599 789.5 1619.5Q809 1640 837 1640Q866 1640 886.5 1619.5Q907 1599 907 1571Q907 1542 886.5 1521.5Q866 1501 837 1501Z" glyph-name="Udieresis" horiz-adv-x="1380" unicode="&#220;" /><glyph d="M702 82Q787 82 861.5 100.5Q936 119 991.5 164.5Q1047 210 1079.5 287Q1112 364 1112 481V1434H1217V485Q1217 350 1177.5 256Q1138 162 1068 103.5Q998 45 902.5 18.5Q807 -8 696 -8Q586 -8 489.5 18Q393 44 321 102.5Q249 161 207.5 255Q166 349 166 485V1434H274V481Q274 366 308 289Q342 212 400.5 166Q459 120 537 101Q615 82 702 82ZM672 1481 514 1665V1704H616L733 1511V1481Z" glyph-name="Ugrave" horiz-adv-x="1380" unicode="&#217;" /><glyph d="M59 1389V1434H154L623 131H627L1096 1434H1186V1389L680 0H565Z" glyph-name="V" horiz-adv-x="1245" unicode="V" /><glyph d="M63 1391V1434H164L483 174H489L844 1434H938L1294 174H1300L1618 1434H1712V1391L1354 0H1235L891 1243H887L541 0H422Z" glyph-name="W" horiz-adv-x="1776" unicode="W" /><glyph d="M72 45 543 745 102 1389V1434H197L618 817L1030 1434H1116V1389L684 743L1155 45V0H1061L608 674L158 0H72Z" glyph-name="X" horiz-adv-x="1227" unicode="X" /><glyph d="M510 0V600L53 1389V1434H147L567 702H569L989 1434H1075V1389L621 604V0Z" glyph-name="Y" horiz-adv-x="1126" unicode="Y" /><glyph d="M510 0V600L53 1389V1434H147L567 702H569L989 1434H1075V1389L621 604V0ZM529 1511 650 1704H748V1665L592 1481H529Z" glyph-name="Yacute" horiz-adv-x="1126" unicode="&#221;" /><glyph d="M510 0V600L53 1389V1434H147L567 702H569L989 1434H1075V1389L621 604V0ZM421 1501Q392 1501 372 1521.5Q352 1542 352 1571Q352 1599 372 1619.5Q392 1640 421 1640Q450 1640 470.5 1619.5Q491 1599 491 1571Q491 1542 470.5 1521.5Q450 1501 421 1501ZM714 1501Q686 1501 666.5 1521.5Q647 1542 647 1571Q647 1599 666.5 1619.5Q686 1640 714 1640Q743 1640 763.5 1619.5Q784 1599 784 1571Q784 1542 763.5 1521.5Q743 1501 714 1501Z" glyph-name="Ydieresis" horiz-adv-x="1126" unicode="&#376;" /><glyph d="M68 94 961 1343V1346H123V1434H1077V1337L186 90V86H1055V0H68Z" glyph-name="Z" horiz-adv-x="1151" unicode="Z" /><glyph d="M38 94 931 1343V1346H93V1434H1047V1337L156 90V86H1025V0H38ZM801 1669 619 1481H537L359 1669V1706H418L580 1563L742 1706H801Z" glyph-name="Zcaron" horiz-adv-x="1090" unicode="&#381;" /><glyph d="M768 145Q734 110 698 81Q662 52 618.5 32Q575 12 522 1Q469 -10 403 -10Q329 -10 266 10Q203 30 157 69Q111 108 85 166Q59 224 59 299Q59 380 91 439Q123 498 180 536.5Q237 575 315.5 593.5Q394 612 487 612Q565 612 633.5 604.5Q702 597 768 580V772Q768 834 749 877Q730 920 695.5 946.5Q661 973 612.5 985Q564 997 506 997Q387 997 306 970Q225 943 174 903H131V987Q163 1005 202 1021.5Q241 1038 287.5 1050.5Q334 1063 389.5 1071Q445 1079 510 1079Q591 1079 657.5 1063Q724 1047 771.5 1011.5Q819 976 844.5 918.5Q870 861 870 778V0H842Q819 0 805 4Q791 8 782.5 19.5Q774 31 771 51.5Q768 72 768 104ZM418 70Q482 70 533 83Q584 96 626 119Q668 142 702 174Q736 206 768 244V506Q706 520 638.5 529.5Q571 539 494 539Q423 539 362.5 526Q302 513 258 484.5Q214 456 189 412Q164 368 164 307Q164 243 183.5 198Q203 153 237 124.5Q271 96 317.5 83Q364 70 418 70Z" glyph-name="a" horiz-adv-x="1010" unicode="a" /><glyph d="M768 145Q734 110 698 81Q662 52 618.5 32Q575 12 522 1Q469 -10 403 -10Q329 -10 266 10Q203 30 157 69Q111 108 85 166Q59 224 59 299Q59 380 91 439Q123 498 180 536.5Q237 575 315.5 593.5Q394 612 487 612Q565 612 633.5 604.5Q702 597 768 580V772Q768 834 749 877Q730 920 695.5 946.5Q661 973 612.5 985Q564 997 506 997Q387 997 306 970Q225 943 174 903H131V987Q163 1005 202 1021.5Q241 1038 287.5 1050.5Q334 1063 389.5 1071Q445 1079 510 1079Q591 1079 657.5 1063Q724 1047 771.5 1011.5Q819 976 844.5 918.5Q870 861 870 778V0H842Q819 0 805 4Q791 8 782.5 19.5Q774 31 771 51.5Q768 72 768 104ZM418 70Q482 70 533 83Q584 96 626 119Q668 142 702 174Q736 206 768 244V506Q706 520 638.5 529.5Q571 539 494 539Q423 539 362.5 526Q302 513 258 484.5Q214 456 189 412Q164 368 164 307Q164 243 183.5 198Q203 153 237 124.5Q271 96 317.5 83Q364 70 418 70ZM475 1174V1206L628 1434H731V1393L538 1174Z" glyph-name="aacute" horiz-adv-x="1010" unicode="&#225;" /><glyph d="M768 145Q734 110 698 81Q662 52 618.5 32Q575 12 522 1Q469 -10 403 -10Q329 -10 266 10Q203 30 157 69Q111 108 85 166Q59 224 59 299Q59 380 91 439Q123 498 180 536.5Q237 575 315.5 593.5Q394 612 487 612Q565 612 633.5 604.5Q702 597 768 580V772Q768 834 749 877Q730 920 695.5 946.5Q661 973 612.5 985Q564 997 506 997Q387 997 306 970Q225 943 174 903H131V987Q163 1005 202 1021.5Q241 1038 287.5 1050.5Q334 1063 389.5 1071Q445 1079 510 1079Q591 1079 657.5 1063Q724 1047 771.5 1011.5Q819 976 844.5 918.5Q870 861 870 778V0H842Q819 0 805 4Q791 8 782.5 19.5Q774 31 771 51.5Q768 72 768 104ZM418 70Q482 70 533 83Q584 96 626 119Q668 142 702 174Q736 206 768 244V506Q706 520 638.5 529.5Q571 539 494 539Q423 539 362.5 526Q302 513 258 484.5Q214 456 189 412Q164 368 164 307Q164 243 183.5 198Q203 153 237 124.5Q271 96 317.5 83Q364 70 418 70ZM283 1212 471 1434H553L737 1212V1174H676L508 1352L340 1174H283Z" glyph-name="acircumflex" horiz-adv-x="1010" unicode="&#226;" /><glyph d="M377 1174V1206L530 1434H633V1393L440 1174Z" glyph-name="acute" horiz-adv-x="848" unicode="&#180;" /><glyph d="M377 1511 498 1704H596V1665L440 1481H377Z" glyph-name="acute.cap" horiz-adv-x="848" /><glyph d="M768 145Q734 110 698 81Q662 52 618.5 32Q575 12 522 1Q469 -10 403 -10Q329 -10 266 10Q203 30 157 69Q111 108 85 166Q59 224 59 299Q59 380 91 439Q123 498 180 536.5Q237 575 315.5 593.5Q394 612 487 612Q565 612 633.5 604.5Q702 597 768 580V772Q768 834 749 877Q730 920 695.5 946.5Q661 973 612.5 985Q564 997 506 997Q387 997 306 970Q225 943 174 903H131V987Q163 1005 202 1021.5Q241 1038 287.5 1050.5Q334 1063 389.5 1071Q445 1079 510 1079Q591 1079 657.5 1063Q724 1047 771.5 1011.5Q819 976 844.5 918.5Q870 861 870 778V0H842Q819 0 805 4Q791 8 782.5 19.5Q774 31 771 51.5Q768 72 768 104ZM418 70Q482 70 533 83Q584 96 626 119Q668 142 702 174Q736 206 768 244V506Q706 520 638.5 529.5Q571 539 494 539Q423 539 362.5 526Q302 513 258 484.5Q214 456 189 412Q164 368 164 307Q164 243 183.5 198Q203 153 237 124.5Q271 96 317.5 83Q364 70 418 70ZM364 1231Q335 1231 315 1251Q295 1271 295 1298Q295 1327 315 1347.5Q335 1368 364 1368Q393 1368 413.5 1347.5Q434 1327 434 1298Q434 1271 413.5 1251Q393 1231 364 1231ZM657 1231Q629 1231 609.5 1251Q590 1271 590 1298Q590 1327 609.5 1347.5Q629 1368 657 1368Q686 1368 706.5 1347.5Q727 1327 727 1298Q727 1271 706.5 1251Q686 1231 657 1231Z" glyph-name="adieresis" horiz-adv-x="1010" unicode="&#228;" /><glyph d="M406 -10Q331 -10 267 10Q203 30 157 69.5Q111 109 85 167Q59 225 59 301Q59 379 90.5 437.5Q122 496 179 534Q236 572 314.5 591Q393 610 487 610H768V772Q768 834 749 877Q730 920 695.5 946.5Q661 973 612.5 985Q564 997 506 997Q387 997 306 970Q225 943 174 903H131V987Q163 1005 202 1021.5Q241 1038 287.5 1050.5Q334 1063 389.5 1071Q445 1079 510 1079Q578 1079 636 1067.5Q694 1056 738 1030Q782 1004 812 962.5Q842 921 854 862Q916 965 1016 1022Q1116 1079 1241 1079Q1339 1079 1420 1050Q1501 1021 1558.5 960.5Q1616 900 1647.5 805.5Q1679 711 1679 580Q1679 566 1678 551Q1677 536 1677 532H872V530Q872 304 974.5 190Q1077 76 1278 76Q1342 76 1393.5 85Q1445 94 1486 109.5Q1527 125 1557.5 145Q1588 165 1610 186H1655V111Q1626 88 1589.5 67Q1553 46 1505.5 29Q1458 12 1399.5 2Q1341 -8 1268 -8Q1113 -8 1004.5 52Q896 112 836 223Q801 172 759 129Q717 86 664.5 55Q612 24 548 7Q484 -10 406 -10ZM418 70Q486 70 542.5 86Q599 102 646 132Q693 162 731.5 204Q770 246 803 297Q768 400 768 530V532H494Q422 532 361 519.5Q300 507 256.5 479.5Q213 452 188.5 409.5Q164 367 164 307Q164 243 183.5 198Q203 153 237 124.5Q271 96 317.5 83Q364 70 418 70ZM1241 1001Q1167 1001 1104 976.5Q1041 952 993 903.5Q945 855 914 781.5Q883 708 874 610H1575Q1573 717 1549 791.5Q1525 866 1481.5 912.5Q1438 959 1377 980Q1316 1001 1241 1001Z" glyph-name="ae" horiz-adv-x="1743" unicode="&#230;" /><glyph d="M768 145Q734 110 698 81Q662 52 618.5 32Q575 12 522 1Q469 -10 403 -10Q329 -10 266 10Q203 30 157 69Q111 108 85 166Q59 224 59 299Q59 380 91 439Q123 498 180 536.5Q237 575 315.5 593.5Q394 612 487 612Q565 612 633.5 604.5Q702 597 768 580V772Q768 834 749 877Q730 920 695.5 946.5Q661 973 612.5 985Q564 997 506 997Q387 997 306 970Q225 943 174 903H131V987Q163 1005 202 1021.5Q241 1038 287.5 1050.5Q334 1063 389.5 1071Q445 1079 510 1079Q591 1079 657.5 1063Q724 1047 771.5 1011.5Q819 976 844.5 918.5Q870 861 870 778V0H842Q819 0 805 4Q791 8 782.5 19.5Q774 31 771 51.5Q768 72 768 104ZM418 70Q482 70 533 83Q584 96 626 119Q668 142 702 174Q736 206 768 244V506Q706 520 638.5 529.5Q571 539 494 539Q423 539 362.5 526Q302 513 258 484.5Q214 456 189 412Q164 368 164 307Q164 243 183.5 198Q203 153 237 124.5Q271 96 317.5 83Q364 70 418 70ZM486 1174 293 1393V1434H393L547 1206V1174Z" glyph-name="agrave" horiz-adv-x="1010" unicode="&#224;" /><glyph d="M983 184Q948 142 902.5 106.5Q857 71 803 45.5Q749 20 686 6Q623 -8 553 -8Q435 -8 345.5 24Q256 56 195.5 112Q135 168 104.5 244Q74 320 74 408Q74 494 101 561.5Q128 629 174 681Q220 733 280.5 770.5Q341 808 408 834Q387 859 367 888Q347 917 331.5 951Q316 985 306.5 1025.5Q297 1066 297 1114Q297 1187 323.5 1247.5Q350 1308 398 1351Q446 1394 513.5 1418Q581 1442 664 1442Q766 1442 835 1418.5Q904 1395 958 1350V1270H907Q864 1310 807 1333Q750 1356 666 1356Q606 1356 557.5 1338.5Q509 1321 474.5 1288.5Q440 1256 421.5 1211Q403 1166 403 1112Q403 1074 413.5 1037.5Q424 1001 445 963.5Q466 926 497 885.5Q528 845 569 799L977 342Q1001 388 1024 441.5Q1047 495 1066 553Q1085 611 1099 672Q1113 733 1120 795H1212V758Q1192 631 1146.5 503.5Q1101 376 1038 270L1239 45V0H1149ZM565 80Q688 80 774.5 125.5Q861 171 924 250L463 770Q404 746 353 715Q302 684 265 642Q228 600 207 543Q186 486 186 410Q186 348 207.5 288.5Q229 229 275 182.5Q321 136 392.5 108Q464 80 565 80Z" glyph-name="ampersand" horiz-adv-x="1315" unicode="&amp;" /><glyph d="M768 145Q734 110 698 81Q662 52 618.5 32Q575 12 522 1Q469 -10 403 -10Q329 -10 266 10Q203 30 157 69Q111 108 85 166Q59 224 59 299Q59 380 91 439Q123 498 180 536.5Q237 575 315.5 593.5Q394 612 487 612Q565 612 633.5 604.5Q702 597 768 580V772Q768 834 749 877Q730 920 695.5 946.5Q661 973 612.5 985Q564 997 506 997Q387 997 306 970Q225 943 174 903H131V987Q163 1005 202 1021.5Q241 1038 287.5 1050.5Q334 1063 389.5 1071Q445 1079 510 1079Q591 1079 657.5 1063Q724 1047 771.5 1011.5Q819 976 844.5 918.5Q870 861 870 778V0H842Q819 0 805 4Q791 8 782.5 19.5Q774 31 771 51.5Q768 72 768 104ZM418 70Q482 70 533 83Q584 96 626 119Q668 142 702 174Q736 206 768 244V506Q706 520 638.5 529.5Q571 539 494 539Q423 539 362.5 526Q302 513 258 484.5Q214 456 189 412Q164 368 164 307Q164 243 183.5 198Q203 153 237 124.5Q271 96 317.5 83Q364 70 418 70ZM512 1176Q477 1176 444.5 1188Q412 1200 387 1222.5Q362 1245 347 1277.5Q332 1310 332 1350Q332 1390 347 1422.5Q362 1455 387 1478Q412 1501 444.5 1513.5Q477 1526 512 1526Q546 1526 578.5 1513.5Q611 1501 635.5 1478Q660 1455 675 1422.5Q690 1390 690 1350Q690 1310 675 1277.5Q660 1245 635.5 1222.5Q611 1200 578.5 1188Q546 1176 512 1176ZM512 1243Q555 1243 585.5 1272.5Q616 1302 616 1350Q616 1399 585.5 1429.5Q555 1460 512 1460Q467 1460 437 1429.5Q407 1399 407 1350Q407 1302 437 1272.5Q467 1243 512 1243Z" glyph-name="aring" horiz-adv-x="1010" unicode="&#229;" /><glyph d="M55 991 358 1434H453L752 991V956H666L408 1335H403L139 956H55Z" glyph-name="asciicircum" horiz-adv-x="807" unicode="^" /><glyph d="M53 526Q59 557 71.5 584Q84 611 103.5 631Q123 651 148.5 662.5Q174 674 205 674Q241 674 276 661Q311 648 344 633Q377 618 406.5 605Q436 592 461 592Q495 592 514 615Q533 638 541 684H618V645Q606 582 567 540Q528 498 463 498Q429 498 394.5 511Q360 524 327.5 539Q295 554 265 567Q235 580 211 580Q143 580 131 485H53Z" glyph-name="asciitilde" horiz-adv-x="672" unicode="~" /><glyph d="M397 1147 590 1233 653 1255 680 1163 616 1141 414 1094 555 934 594 879 522 823 483 879 367 1061 250 879 209 823 139 879 178 934 319 1094 115 1141 53 1163 80 1255 143 1233 336 1147 319 1364V1434H414V1364Z" glyph-name="asterisk" horiz-adv-x="733" unicode="*" /><glyph d="M870 -244Q766 -244 666 -226Q566 -208 477 -169.5Q388 -131 313.5 -71Q239 -11 185 72Q131 155 100.5 262Q70 369 70 502Q70 639 106 755Q142 871 204 965Q266 1059 349.5 1130Q433 1201 529 1249Q625 1297 728 1321.5Q831 1346 932 1346Q1089 1346 1227 1303Q1365 1260 1468 1176.5Q1571 1093 1630.5 969.5Q1690 846 1690 686Q1690 544 1650 442Q1610 340 1545.5 274.5Q1481 209 1401 178Q1321 147 1241 147Q1183 147 1144 162Q1105 177 1082 201.5Q1059 226 1049.5 258.5Q1040 291 1042 326Q1013 293 977.5 260.5Q942 228 900 201.5Q858 175 809.5 159Q761 143 707 143Q656 143 613 159.5Q570 176 539 209Q508 242 490.5 291Q473 340 473 406Q473 470 489.5 535.5Q506 601 536.5 662Q567 723 611 777Q655 831 709.5 870.5Q764 910 828 933Q892 956 963 956Q1003 956 1035 950Q1067 944 1092.5 934.5Q1118 925 1137.5 912Q1157 899 1174 885Q1186 917 1199.5 933.5Q1213 950 1241 950H1274L1145 408Q1134 366 1134 331.5Q1134 297 1146.5 273Q1159 249 1186 236Q1213 223 1257 223Q1318 223 1379 248Q1440 273 1489 328.5Q1538 384 1568.5 472Q1599 560 1599 686Q1599 827 1550 935.5Q1501 1044 1412.5 1118Q1324 1192 1201.5 1230Q1079 1268 932 1268Q840 1268 747 1246.5Q654 1225 568.5 1182Q483 1139 408.5 1075Q334 1011 279.5 925.5Q225 840 193.5 734Q162 628 162 502Q162 322 217.5 195Q273 68 369 -12.5Q465 -93 594 -130.5Q723 -168 870 -168Q948 -168 1022.5 -158Q1097 -148 1164.5 -129Q1232 -110 1289.5 -82.5Q1347 -55 1391 -20H1430V-88Q1382 -124 1320 -153Q1258 -182 1186 -202Q1114 -222 1034 -233Q954 -244 870 -244ZM721 221Q774 221 819 239Q864 257 904 286Q944 315 980.5 351.5Q1017 388 1053 426L1145 819Q1113 844 1072.5 860.5Q1032 877 965 877Q910 877 859 858.5Q808 840 764 807Q720 774 683.5 729Q647 684 621 631.5Q595 579 581 521.5Q567 464 567 406Q567 357 579 322Q591 287 612 264.5Q633 242 661 231.5Q689 221 721 221Z" glyph-name="at" horiz-adv-x="1759" unicode="@" /><glyph d="M768 145Q734 110 698 81Q662 52 618.5 32Q575 12 522 1Q469 -10 403 -10Q329 -10 266 10Q203 30 157 69Q111 108 85 166Q59 224 59 299Q59 380 91 439Q123 498 180 536.5Q237 575 315.5 593.5Q394 612 487 612Q565 612 633.5 604.5Q702 597 768 580V772Q768 834 749 877Q730 920 695.5 946.5Q661 973 612.5 985Q564 997 506 997Q387 997 306 970Q225 943 174 903H131V987Q163 1005 202 1021.5Q241 1038 287.5 1050.5Q334 1063 389.5 1071Q445 1079 510 1079Q591 1079 657.5 1063Q724 1047 771.5 1011.5Q819 976 844.5 918.5Q870 861 870 778V0H842Q819 0 805 4Q791 8 782.5 19.5Q774 31 771 51.5Q768 72 768 104ZM418 70Q482 70 533 83Q584 96 626 119Q668 142 702 174Q736 206 768 244V506Q706 520 638.5 529.5Q571 539 494 539Q423 539 362.5 526Q302 513 258 484.5Q214 456 189 412Q164 368 164 307Q164 243 183.5 198Q203 153 237 124.5Q271 96 317.5 83Q364 70 418 70ZM250 1239Q255 1267 267.5 1291Q280 1315 299 1333Q318 1351 343 1361.5Q368 1372 399 1372Q433 1372 462.5 1359.5Q492 1347 519 1332Q546 1317 570 1304.5Q594 1292 616 1292Q651 1292 672.5 1316Q694 1340 700 1378H770V1339Q764 1312 751.5 1287.5Q739 1263 720.5 1245Q702 1227 677.5 1216.5Q653 1206 622 1206Q587 1206 557 1219Q527 1232 500.5 1247Q474 1262 450.5 1275Q427 1288 405 1288Q370 1288 348 1264Q326 1240 319 1202H250Z" glyph-name="atilde" horiz-adv-x="1010" unicode="&#227;" /><glyph d="M250 877Q281 914 322 950Q363 986 413.5 1014.5Q464 1043 524 1061Q584 1079 655 1079Q731 1079 804.5 1053.5Q878 1028 936 966.5Q994 905 1029.5 802.5Q1065 700 1065 547Q1065 389 1024.5 282.5Q984 176 918.5 111.5Q853 47 771.5 19.5Q690 -8 608 -8Q543 -8 490.5 1Q438 10 394.5 26.5Q351 43 315 66Q279 89 248 117Q242 67 223.5 33.5Q205 0 174 0H147V1434H184Q206 1434 219.5 1430.5Q233 1427 239.5 1416.5Q246 1406 248 1386.5Q250 1367 250 1335ZM639 995Q574 995 518.5 976.5Q463 958 414.5 927Q366 896 325 857Q284 818 250 776V213Q281 178 316.5 152Q352 126 393 108Q434 90 482 81Q530 72 588 72Q654 72 720.5 93Q787 114 840.5 167Q894 220 927.5 310.5Q961 401 961 539Q961 675 931.5 763.5Q902 852 855.5 903.5Q809 955 752 975Q695 995 639 995Z" glyph-name="b" horiz-adv-x="1135" unicode="b" /><glyph d="M29 1518H117L606 -72V-100H514L29 1489Z" glyph-name="backslash" horiz-adv-x="627" unicode="\" /><glyph d="M254 -100H166V1518H254Z" glyph-name="bar" horiz-adv-x="420" unicode="|" /><glyph d="M233 563Q233 620 202 652Q171 684 104 684H47V766H104Q171 766 202 798Q233 830 233 887V1284Q233 1403 293 1460.5Q353 1518 471 1518H580V1436H481Q406 1436 372 1397.5Q338 1359 338 1284V891Q338 816 303.5 778.5Q269 741 213 727V725Q269 711 303.5 672Q338 633 338 559V135Q338 61 372 21.5Q406 -18 481 -18H580V-100H471Q353 -100 293 -42Q233 16 233 137Z" glyph-name="braceleft" horiz-adv-x="627" unicode="{" /><glyph d="M393 137Q393 16 333 -42Q273 -100 158 -100H49V-18H145Q221 -18 255 21.5Q289 61 289 135V559Q289 633 323.5 672Q358 711 414 725V727Q358 741 323.5 778.5Q289 816 289 891V1284Q289 1359 255 1397.5Q221 1436 145 1436H49V1518H158Q273 1518 333 1460.5Q393 1403 393 1284V887Q393 830 424.5 798Q456 766 524 766H580V684H524Q456 684 424.5 652Q393 620 393 563Z" glyph-name="braceright" horiz-adv-x="627" unicode="}" /><glyph d="M156 1518H512V1436H258V-18H512V-100H156Z" glyph-name="bracketleft" horiz-adv-x="559" unicode="[" /><glyph d="M403 -100H49V-18H301V1436H49V1518H403Z" glyph-name="bracketright" horiz-adv-x="559" unicode="]" /><glyph d="M424 1178Q376 1178 337 1193Q298 1208 268.5 1234Q239 1260 219.5 1294.5Q200 1329 193 1368V1407H268Q276 1338 316 1299Q356 1260 424 1260Q493 1260 533 1299Q573 1338 580 1407H655V1368Q647 1329 628 1294.5Q609 1260 579.5 1234Q550 1208 511 1193Q472 1178 424 1178Z" glyph-name="breve" horiz-adv-x="848" unicode="&#728;" /><glyph d="M424 1485Q376 1485 337 1498.5Q298 1512 268.5 1535Q239 1558 219.5 1589.5Q200 1621 193 1657V1698H266Q274 1635 315 1602Q356 1569 424 1569Q493 1569 533 1602Q573 1635 580 1698H655V1657Q647 1621 628 1589.5Q609 1558 579.5 1535Q550 1512 511 1498.5Q472 1485 424 1485Z" glyph-name="breve.cap" horiz-adv-x="848" /><glyph d="M94 637H186L184 -100H94ZM94 1518H184L186 786H94Z" glyph-name="brokenbar" horiz-adv-x="281" unicode="&#166;" /><glyph d="M293 379Q243 379 199.5 395Q156 411 123.5 441.5Q91 472 72 516Q53 560 53 616Q53 671 72 715Q91 759 123.5 790Q156 821 199.5 837.5Q243 854 293 854Q344 854 387.5 837.5Q431 821 463 790Q495 759 513.5 715Q532 671 532 616Q532 560 513.5 516Q495 472 463 441.5Q431 411 387.5 395Q344 379 293 379Z" glyph-name="bullet" horiz-adv-x="586" unicode="&#8226;" /><glyph d="M567 -8Q450 -8 357 30Q264 68 200 138.5Q136 209 102 310Q68 411 68 537Q68 663 105 763.5Q142 864 209 934Q276 1004 369 1041.5Q462 1079 573 1079Q639 1079 691 1070Q743 1061 783.5 1046.5Q824 1032 854 1013.5Q884 995 907 977V895H854Q836 913 810.5 931.5Q785 950 751 964.5Q717 979 672.5 988Q628 997 571 997Q482 997 408.5 966Q335 935 282.5 876Q230 817 201 731.5Q172 646 172 537Q172 427 199.5 341Q227 255 278.5 195.5Q330 136 404 105Q478 74 571 74Q633 74 682 85.5Q731 97 768.5 114.5Q806 132 833 154Q860 176 879 197H926V119Q903 97 870.5 74.5Q838 52 793.5 33.5Q749 15 692.5 3.5Q636 -8 567 -8Z" glyph-name="c" horiz-adv-x="983" unicode="c" /><glyph d="M651 1397 463 1174H381L197 1397V1434H258L426 1257L594 1434H651Z" glyph-name="caron" horiz-adv-x="848" unicode="&#711;" /><glyph d="M645 1669 463 1481H381L203 1669V1706H262L424 1563L586 1706H645Z" glyph-name="caron.cap" horiz-adv-x="848" /><glyph d="M463 0Q369 15 295.5 59Q222 103 171.5 172Q121 241 94.5 333.5Q68 426 68 537Q68 663 105 763.5Q142 864 209 934Q276 1004 369 1041.5Q462 1079 573 1079Q639 1079 691 1070Q743 1061 783.5 1046.5Q824 1032 854 1013.5Q884 995 907 977V895H854Q836 913 810.5 931.5Q785 950 751 964.5Q717 979 672.5 988Q628 997 571 997Q482 997 408.5 966Q335 935 282.5 876Q230 817 201 731.5Q172 646 172 537Q172 427 199.5 341Q227 255 278.5 195.5Q330 136 404 105Q478 74 571 74Q633 74 682 85.5Q731 97 768.5 114.5Q806 132 833 154Q860 176 879 197H926V119Q903 97 870.5 74.5Q838 52 793.5 33.5Q749 15 692.5 3.5Q636 -8 567 -8Q558 -8 550.5 -8Q543 -8 535 -6V-82Q612 -85 654 -120.5Q696 -156 696 -221Q696 -253 683 -278.5Q670 -304 647 -321Q624 -338 593 -347Q562 -356 526 -356Q477 -356 442 -344Q407 -332 381 -315V-252H424Q436 -264 459.5 -273.5Q483 -283 520 -283Q558 -283 583 -267Q608 -251 608 -219Q608 -188 585 -169Q562 -150 506 -150H459V0Z" glyph-name="ccedilla" horiz-adv-x="983" unicode="&#231;" /><glyph d="M420 0V-82Q497 -85 539.5 -120.5Q582 -156 582 -221Q582 -253 568.5 -278.5Q555 -304 532 -321Q509 -338 478 -347Q447 -356 412 -356Q362 -356 327 -344Q292 -332 266 -315V-252H309Q322 -264 345 -273.5Q368 -283 406 -283Q444 -283 469 -267Q494 -251 494 -219Q494 -188 470.5 -169Q447 -150 391 -150H344V0Z" glyph-name="cedilla" horiz-adv-x="848" unicode="&#184;" /><glyph d="M1049 117Q1028 97 998 76Q968 55 928.5 38Q889 21 839.5 9Q790 -3 731 -6V-209H645V-6Q537 1 452.5 41.5Q368 82 309 152Q250 222 219 319.5Q188 417 188 537Q188 657 221.5 753.5Q255 850 315.5 919.5Q376 989 460 1029Q544 1069 645 1077V1198H731V1077Q788 1075 834 1065.5Q880 1056 916 1042Q952 1028 979.5 1011Q1007 994 1028 977V895H975Q958 912 935.5 928.5Q913 945 883.5 959Q854 973 816.5 982.5Q779 992 731 995V74Q785 78 827 90Q869 102 902 119.5Q935 137 959 157Q983 177 1001 197H1049ZM293 537Q293 434 316.5 352Q340 270 385 211Q430 152 495.5 117.5Q561 83 645 76V995Q565 987 500 952.5Q435 918 389 859.5Q343 801 318 719.5Q293 638 293 537Z" glyph-name="cent" horiz-adv-x="1229" unicode="&#162;" /><glyph d="M197 1212 385 1434H467L651 1212V1174H590L422 1352L254 1174H197Z" glyph-name="circumflex" horiz-adv-x="848" unicode="&#710;" /><glyph d="M203 1518 385 1706H467L645 1518V1481H584L422 1624L262 1481H203Z" glyph-name="circumflex.cap" horiz-adv-x="848" /><glyph d="M307 629Q273 629 251 652Q229 675 229 707Q229 741 251 763.5Q273 786 307 786Q339 786 362 763.5Q385 741 385 707Q385 675 362 652Q339 629 307 629ZM307 -8Q273 -8 251 14Q229 36 229 70Q229 102 251 126Q273 150 307 150Q339 150 362 126Q385 102 385 70Q385 36 362 14Q339 -8 307 -8Z" glyph-name="colon" horiz-adv-x="614" unicode=":" /><glyph d="M207 -102Q249 -94 271 -74Q293 -54 293 -27Q293 -5 282.5 1.5Q272 8 260 16Q243 27 235 41Q227 55 227 78Q227 109 249 129.5Q271 150 305 150Q336 150 361.5 124.5Q387 99 387 41Q387 -11 374.5 -48Q362 -85 338.5 -109.5Q315 -134 281.5 -147.5Q248 -161 207 -166Z" glyph-name="comma" horiz-adv-x="614" unicode="," /><glyph d="M813 -12Q716 -12 624 9.5Q532 31 451.5 72.5Q371 114 303.5 176Q236 238 188 319Q140 400 113 499.5Q86 599 86 717Q86 835 113 934.5Q140 1034 188 1115Q236 1196 303.5 1258Q371 1320 451.5 1361.5Q532 1403 624 1424.5Q716 1446 813 1446Q910 1446 1002 1424.5Q1094 1403 1174.5 1361.5Q1255 1320 1322.5 1258Q1390 1196 1438 1115Q1486 1034 1513 934.5Q1540 835 1540 717Q1540 599 1513 499.5Q1486 400 1438 319Q1390 238 1322.5 176Q1255 114 1174.5 72.5Q1094 31 1002 9.5Q910 -12 813 -12ZM813 63Q945 63 1061.5 106Q1178 149 1265.5 232.5Q1353 316 1403.5 437.5Q1454 559 1454 717Q1454 874 1403.5 996.5Q1353 1119 1265.5 1202Q1178 1285 1061.5 1328.5Q945 1372 813 1372Q681 1372 564.5 1328.5Q448 1285 361.5 1202Q275 1119 224.5 996.5Q174 874 174 717Q174 559 224.5 437.5Q275 316 361.5 232.5Q448 149 564.5 106Q681 63 813 63ZM829 319Q738 319 666.5 347Q595 375 545.5 427Q496 479 470 553Q444 627 444 719Q444 811 473 884.5Q502 958 553.5 1009.5Q605 1061 676.5 1088.5Q748 1116 834 1116Q886 1116 926.5 1109Q967 1102 998 1091.5Q1029 1081 1052 1067.5Q1075 1054 1092 1042V961H1036Q1010 993 964 1013.5Q918 1034 834 1034Q772 1034 720 1013.5Q668 993 630.5 953Q593 913 572 854Q551 795 551 719Q551 561 625 482Q699 403 834 403Q878 403 912.5 411Q947 419 973.5 432Q1000 445 1018.5 461Q1037 477 1049 492H1098V414Q1081 398 1056.5 381Q1032 364 998.5 350.5Q965 337 923 328Q881 319 829 319Z" glyph-name="copyright" horiz-adv-x="1626" unicode="&#169;" /><glyph d="M883 184Q851 143 809 108Q767 73 717.5 47.5Q668 22 611.5 7Q555 -8 492 -8Q411 -8 335 19.5Q259 47 200 109.5Q141 172 105.5 273.5Q70 375 70 524Q70 627 88.5 708.5Q107 790 139.5 852Q172 914 216 957Q260 1000 310.5 1027Q361 1054 416 1066.5Q471 1079 526 1079Q652 1079 737.5 1043Q823 1007 883 946V1434H918Q940 1434 953.5 1430.5Q967 1427 974.5 1416.5Q982 1406 984.5 1386.5Q987 1367 987 1335V0H934Q918 0 908 4.5Q898 9 893 22Q888 35 886 58.5Q884 82 883 119ZM502 72Q567 72 622 88.5Q677 105 723.5 134Q770 163 809 202.5Q848 242 883 289V854Q851 888 816.5 914.5Q782 941 740.5 960Q699 979 650.5 989Q602 999 543 999Q475 999 409 978Q343 957 290.5 903.5Q238 850 206 759Q174 668 174 528Q174 395 202.5 307.5Q231 220 277.5 167.5Q324 115 383 93.5Q442 72 502 72Z" glyph-name="d" horiz-adv-x="1139" unicode="d" /><glyph d="M375 584V737L397 950L176 928H61V1028H176L397 1008L377 1192V1434H483V1192L465 1008L684 1028H799V928H684L465 950L485 739V584L471 -100H389Z" glyph-name="dagger" horiz-adv-x="858" unicode="&#8224;" /><glyph d="M377 129 395 311 176 293H61V391H176L395 371L375 578V756L397 963L176 942H61V1040H176L397 1022L377 1206V1434H485V1206L465 1022L684 1040H799V942H684L465 963L487 756V578L463 371L684 391H799V293H684L463 311L485 129V-100H377Z" glyph-name="daggerdbl" horiz-adv-x="858" unicode="&#8225;" /><glyph d="M326 928Q273 928 226.5 946.5Q180 965 144.5 998.5Q109 1032 88.5 1079.5Q68 1127 68 1186Q68 1246 88.5 1294Q109 1342 144.5 1376Q180 1410 226.5 1428Q273 1446 326 1446Q379 1446 426 1428Q473 1410 508 1376Q543 1342 563.5 1294Q584 1246 584 1186Q584 1127 563.5 1079.5Q543 1032 508 998.5Q473 965 426 946.5Q379 928 326 928ZM326 1004Q363 1004 394.5 1017Q426 1030 449.5 1054Q473 1078 486.5 1111.5Q500 1145 500 1186Q500 1228 486.5 1262Q473 1296 449.5 1320Q426 1344 394.5 1357Q363 1370 326 1370Q290 1370 258 1357Q226 1344 202.5 1320Q179 1296 165.5 1262Q152 1228 152 1186Q152 1145 165.5 1111.5Q179 1078 202.5 1054Q226 1030 258 1017Q290 1004 326 1004Z" glyph-name="degree" horiz-adv-x="651" unicode="&#176;" /><glyph d="M276 1231Q247 1231 227 1251Q207 1271 207 1298Q207 1327 227 1347.5Q247 1368 276 1368Q305 1368 325.5 1347.5Q346 1327 346 1298Q346 1271 325.5 1251Q305 1231 276 1231ZM569 1231Q541 1231 521.5 1251Q502 1271 502 1298Q502 1327 521.5 1347.5Q541 1368 569 1368Q598 1368 618.5 1347.5Q639 1327 639 1298Q639 1271 618.5 1251Q598 1231 569 1231Z" glyph-name="dieresis" horiz-adv-x="848" unicode="&#168;" /><glyph d="M276 1501Q247 1501 227 1521.5Q207 1542 207 1571Q207 1599 227 1619.5Q247 1640 276 1640Q305 1640 325.5 1619.5Q346 1599 346 1571Q346 1542 325.5 1521.5Q305 1501 276 1501ZM569 1501Q541 1501 521.5 1521.5Q502 1542 502 1571Q502 1599 521.5 1619.5Q541 1640 569 1640Q598 1640 618.5 1619.5Q639 1599 639 1571Q639 1542 618.5 1521.5Q598 1501 569 1501Z" glyph-name="dieresis.cap" horiz-adv-x="848" /><glyph d="M207 662V754H1026V662ZM616 483Q651 483 673.5 460.5Q696 438 696 403Q696 369 673.5 347.5Q651 326 616 326Q584 326 561.5 347.5Q539 369 539 403Q539 438 561.5 460.5Q584 483 616 483ZM616 1090Q651 1090 673.5 1067Q696 1044 696 1010Q696 978 673.5 955Q651 932 616 932Q584 932 561.5 955Q539 978 539 1010Q539 1044 561.5 1067Q584 1090 616 1090Z" glyph-name="divide" horiz-adv-x="1229" unicode="&#247;" /><glyph d="M651 1442Q712 1440 762 1430.5Q812 1421 854 1406Q896 1391 931 1371Q966 1351 997 1329V1237H948Q920 1261 890 1281.5Q860 1302 824.5 1318Q789 1334 746 1344Q703 1354 651 1356V784Q753 757 830 726.5Q907 696 959.5 652.5Q1012 609 1038.5 547Q1065 485 1065 395Q1065 297 1035 224.5Q1005 152 950 102.5Q895 53 818.5 26Q742 -1 649 -6V-209H563V-8Q489 -6 428 6Q367 18 317 36.5Q267 55 226 78Q185 101 152 127V223H201Q228 196 262 171.5Q296 147 340 127Q384 107 439 94Q494 81 563 78V702Q471 728 399.5 759Q328 790 279 833Q230 876 205 935.5Q180 995 180 1079Q180 1154 205.5 1217Q231 1280 279.5 1327Q328 1374 400 1403.5Q472 1433 565 1440V1565H651ZM961 387Q961 459 940 506.5Q919 554 879 586Q839 618 781 639Q723 660 649 680V80Q720 85 777.5 106Q835 127 876 164.5Q917 202 939 257Q961 312 961 387ZM283 1085Q283 1019 302.5 974Q322 929 358.5 898Q395 867 447.5 846Q500 825 565 807V1354Q491 1347 438 1323.5Q385 1300 350.5 1264.5Q316 1229 299.5 1183Q283 1137 283 1085Z" glyph-name="dollar" horiz-adv-x="1229" unicode="$" /><glyph d="M426 1231Q397 1231 376.5 1251Q356 1271 356 1300Q356 1328 376.5 1349Q397 1370 426 1370Q454 1370 475 1349Q496 1328 496 1300Q496 1271 475 1251Q454 1231 426 1231Z" glyph-name="dotaccent" horiz-adv-x="848" unicode="&#729;" /><glyph d="M426 1503Q397 1503 376.5 1524Q356 1545 356 1573Q356 1602 376.5 1622Q397 1642 426 1642Q454 1642 475 1622Q496 1602 496 1573Q496 1545 475 1524Q454 1503 426 1503Z" glyph-name="dotaccent.cap" horiz-adv-x="848" /><glyph d="M152 0V1067H184Q207 1067 221 1063.5Q235 1060 242.5 1048.5Q250 1037 252 1015Q254 993 254 956V0Z" glyph-name="dotlessi" horiz-adv-x="408" unicode="&#305;" /><glyph d="M172 530Q172 304 274.5 190Q377 76 578 76Q642 76 693.5 85Q745 94 786 109.5Q827 125 857.5 145Q888 165 909 186H954V111Q926 88 889.5 67Q853 46 805.5 29Q758 12 699 2Q640 -8 567 -8Q447 -8 354 29.5Q261 67 197.5 137Q134 207 101 306.5Q68 406 68 530Q68 656 103.5 757.5Q139 859 202 930.5Q265 1002 352 1040.5Q439 1079 541 1079Q639 1079 720 1050Q801 1021 858.5 960Q916 899 947.5 804.5Q979 710 979 580Q979 564 978 549Q977 534 977 530ZM541 1001Q467 1001 404 976.5Q341 952 293 903Q245 854 214 780Q183 706 174 608H877Q874 715 849 789.5Q824 864 780.5 911Q737 958 676 979.5Q615 1001 541 1001Z" glyph-name="e" horiz-adv-x="1042" unicode="e" /><glyph d="M172 530Q172 304 274.5 190Q377 76 578 76Q642 76 693.5 85Q745 94 786 109.5Q827 125 857.5 145Q888 165 909 186H954V111Q926 88 889.5 67Q853 46 805.5 29Q758 12 699 2Q640 -8 567 -8Q447 -8 354 29.5Q261 67 197.5 137Q134 207 101 306.5Q68 406 68 530Q68 656 103.5 757.5Q139 859 202 930.5Q265 1002 352 1040.5Q439 1079 541 1079Q639 1079 720 1050Q801 1021 858.5 960Q916 899 947.5 804.5Q979 710 979 580Q979 564 978 549Q977 534 977 530ZM541 1001Q467 1001 404 976.5Q341 952 293 903Q245 854 214 780Q183 706 174 608H877Q874 715 849 789.5Q824 864 780.5 911Q737 958 676 979.5Q615 1001 541 1001ZM504 1174V1206L657 1434H760V1393L567 1174Z" glyph-name="eacute" horiz-adv-x="1042" unicode="&#233;" /><glyph d="M172 530Q172 304 274.5 190Q377 76 578 76Q642 76 693.5 85Q745 94 786 109.5Q827 125 857.5 145Q888 165 909 186H954V111Q926 88 889.5 67Q853 46 805.5 29Q758 12 699 2Q640 -8 567 -8Q447 -8 354 29.5Q261 67 197.5 137Q134 207 101 306.5Q68 406 68 530Q68 656 103.5 757.5Q139 859 202 930.5Q265 1002 352 1040.5Q439 1079 541 1079Q639 1079 720 1050Q801 1021 858.5 960Q916 899 947.5 804.5Q979 710 979 580Q979 564 978 549Q977 534 977 530ZM541 1001Q467 1001 404 976.5Q341 952 293 903Q245 854 214 780Q183 706 174 608H877Q874 715 849 789.5Q824 864 780.5 911Q737 958 676 979.5Q615 1001 541 1001ZM312 1212 500 1434H582L766 1212V1174H705L537 1352L369 1174H312Z" glyph-name="ecircumflex" horiz-adv-x="1042" unicode="&#234;" /><glyph d="M172 530Q172 304 274.5 190Q377 76 578 76Q642 76 693.5 85Q745 94 786 109.5Q827 125 857.5 145Q888 165 909 186H954V111Q926 88 889.5 67Q853 46 805.5 29Q758 12 699 2Q640 -8 567 -8Q447 -8 354 29.5Q261 67 197.5 137Q134 207 101 306.5Q68 406 68 530Q68 656 103.5 757.5Q139 859 202 930.5Q265 1002 352 1040.5Q439 1079 541 1079Q639 1079 720 1050Q801 1021 858.5 960Q916 899 947.5 804.5Q979 710 979 580Q979 564 978 549Q977 534 977 530ZM541 1001Q467 1001 404 976.5Q341 952 293 903Q245 854 214 780Q183 706 174 608H877Q874 715 849 789.5Q824 864 780.5 911Q737 958 676 979.5Q615 1001 541 1001ZM393 1231Q364 1231 344 1251Q324 1271 324 1298Q324 1327 344 1347.5Q364 1368 393 1368Q422 1368 442.5 1347.5Q463 1327 463 1298Q463 1271 442.5 1251Q422 1231 393 1231ZM686 1231Q658 1231 638.5 1251Q619 1271 619 1298Q619 1327 638.5 1347.5Q658 1368 686 1368Q715 1368 735.5 1347.5Q756 1327 756 1298Q756 1271 735.5 1251Q715 1231 686 1231Z" glyph-name="edieresis" horiz-adv-x="1042" unicode="&#235;" /><glyph d="M172 530Q172 304 274.5 190Q377 76 578 76Q642 76 693.5 85Q745 94 786 109.5Q827 125 857.5 145Q888 165 909 186H954V111Q926 88 889.5 67Q853 46 805.5 29Q758 12 699 2Q640 -8 567 -8Q447 -8 354 29.5Q261 67 197.5 137Q134 207 101 306.5Q68 406 68 530Q68 656 103.5 757.5Q139 859 202 930.5Q265 1002 352 1040.5Q439 1079 541 1079Q639 1079 720 1050Q801 1021 858.5 960Q916 899 947.5 804.5Q979 710 979 580Q979 564 978 549Q977 534 977 530ZM541 1001Q467 1001 404 976.5Q341 952 293 903Q245 854 214 780Q183 706 174 608H877Q874 715 849 789.5Q824 864 780.5 911Q737 958 676 979.5Q615 1001 541 1001ZM514 1174 321 1393V1434H421L575 1206V1174Z" glyph-name="egrave" horiz-adv-x="1042" unicode="&#232;" /><glyph d="M614 -8Q493 -8 400 21.5Q307 51 243.5 104Q180 157 147.5 230.5Q115 304 115 393Q115 464 139 525Q163 586 204 634Q245 682 301 715.5Q357 749 422 764V768Q372 783 328 812Q284 841 251 881.5Q218 922 199 973.5Q180 1025 180 1085Q180 1164 210.5 1229.5Q241 1295 298 1342.5Q355 1390 435 1416Q515 1442 614 1442Q713 1442 793 1416Q873 1390 929.5 1342.5Q986 1295 1016.5 1229.5Q1047 1164 1047 1085Q1047 1025 1028 973.5Q1009 922 976 881.5Q943 841 899.5 812Q856 783 807 768V764Q874 748 930 714.5Q986 681 1027 633Q1068 585 1091 524.5Q1114 464 1114 393Q1114 304 1081 230.5Q1048 157 984.5 104Q921 51 828 21.5Q735 -8 614 -8ZM614 76Q713 76 786.5 100Q860 124 909.5 166.5Q959 209 983.5 268Q1008 327 1008 397Q1008 467 982.5 527Q957 587 907.5 630.5Q858 674 784.5 698.5Q711 723 614 723Q516 723 442.5 698.5Q369 674 320 630.5Q271 587 246 527Q221 467 221 397Q221 327 245.5 268Q270 209 318.5 166.5Q367 124 441 100Q515 76 614 76ZM614 809Q692 809 752.5 828.5Q813 848 854.5 884Q896 920 918 970Q940 1020 940 1081Q940 1143 918 1194Q896 1245 854.5 1281.5Q813 1318 752.5 1338Q692 1358 614 1358Q536 1358 475.5 1338Q415 1318 373.5 1281.5Q332 1245 310.5 1194Q289 1143 289 1081Q289 1020 310.5 970Q332 920 373.5 884Q415 848 475.5 828.5Q536 809 614 809Z" glyph-name="eight" horiz-adv-x="1229" unicode="8" /><glyph d="M147 -8Q113 -8 91.5 14Q70 36 70 70Q70 102 91.5 126Q113 150 147 150Q163 150 177.5 143.5Q192 137 203 126Q214 115 220.5 100.5Q227 86 227 70Q227 36 203 14Q179 -8 147 -8ZM477 -8Q445 -8 422 14Q399 36 399 70Q399 102 422 126Q445 150 477 150Q494 150 508.5 143.5Q523 137 534 126Q545 115 551 100.5Q557 86 557 70Q557 36 534 14Q511 -8 477 -8ZM809 -8Q775 -8 753 14Q731 36 731 70Q731 102 753 126Q775 150 809 150Q825 150 839.5 143.5Q854 137 865 126Q876 115 882.5 100.5Q889 86 889 70Q889 36 865 14Q841 -8 809 -8Z" glyph-name="ellipsis" horiz-adv-x="956" unicode="&#8230;" /><glyph d="M57 635H1294V543H57Z" glyph-name="emdash" horiz-adv-x="1352" unicode="&#8212;" /><glyph d="M57 635H752V543H57Z" glyph-name="endash" horiz-adv-x="809" unicode="&#8211;" /><glyph d="M186 770V860H1040V770ZM186 428V518H1040V428Z" glyph-name="equal" horiz-adv-x="1229" unicode="=" /><glyph d="M383 1157 565 1286Q469 1335 350 1360V1434H393Q459 1418 521.5 1394.5Q584 1371 643 1339L774 1434H850V1403L707 1303Q787 1248 852 1174.5Q917 1101 963.5 1008Q1010 915 1035.5 802.5Q1061 690 1061 557Q1061 416 1024 310Q987 204 920.5 133.5Q854 63 762.5 27.5Q671 -8 563 -8Q452 -8 360.5 30Q269 68 204 138Q139 208 103.5 308Q68 408 68 532Q68 656 103 756.5Q138 857 201.5 928Q265 999 353.5 1037Q442 1075 549 1075Q616 1075 669.5 1064Q723 1053 767.5 1030Q812 1007 849 972Q886 937 922 889Q871 1008 795.5 1098Q720 1188 629 1247L459 1128H383ZM567 72Q658 72 730.5 103.5Q803 135 853 196Q903 257 929.5 345Q956 433 956 547Q956 647 930 729.5Q904 812 854 871.5Q804 931 731.5 964Q659 997 567 997Q474 997 400.5 964.5Q327 932 276.5 872Q226 812 199 726Q172 640 172 532Q172 426 198.5 341Q225 256 275.5 196Q326 136 399.5 104Q473 72 567 72Z" glyph-name="eth" horiz-adv-x="1126" unicode="&#240;" /><glyph d="M178 1360V1434H289V1360L276 295H190ZM231 -8Q197 -8 175.5 14Q154 36 154 70Q154 102 175.5 126Q197 150 231 150Q248 150 262.5 143.5Q277 137 288 126Q299 115 305 100.5Q311 86 311 70Q311 36 288 14Q265 -8 231 -8Z" glyph-name="exclam" horiz-adv-x="465" unicode="!" /><glyph d="M287 -80V-156H176V-80L188 983H274ZM233 1286Q268 1286 289.5 1264Q311 1242 311 1210Q311 1176 289.5 1153Q268 1130 233 1130Q199 1130 176.5 1153Q154 1176 154 1210Q154 1242 176.5 1264Q199 1286 233 1286Z" glyph-name="exclamdown" horiz-adv-x="465" unicode="&#161;" /><glyph d="M25 1067H166V1174Q166 1244 185 1294Q204 1344 237 1376.5Q270 1409 316 1424.5Q362 1440 416 1440Q461 1440 494 1436Q527 1432 547 1427V1356H440Q399 1356 367 1347.5Q335 1339 313 1317Q291 1295 279.5 1258.5Q268 1222 268 1167V1067H526V989H268V0H166V989H25Z" glyph-name="f" horiz-adv-x="553" unicode="f" /><glyph d="M25 1067H166V1174Q166 1244 185 1294Q204 1344 237 1376.5Q270 1409 316 1424.5Q362 1440 416 1440Q454 1440 480 1436Q506 1432 526 1427V1356H440Q399 1356 367 1347.5Q335 1339 313 1317Q291 1295 279.5 1258.5Q268 1222 268 1167V1067H526V989H268V0H166V989H25ZM702 0V1067H735Q758 1067 772 1063.5Q786 1060 793.5 1048.5Q801 1037 803 1015Q805 993 805 956V0ZM756 1231Q727 1231 706.5 1251Q686 1271 686 1300Q686 1328 706.5 1349Q727 1370 756 1370Q785 1370 805 1349Q825 1328 825 1300Q825 1271 805 1251Q785 1231 756 1231Z" glyph-name="fi" horiz-adv-x="958" unicode="&#64257;" /><glyph d="M1059 485Q1059 371 1020.5 280Q982 189 913 125Q844 61 747.5 26.5Q651 -8 535 -8Q466 -8 408.5 2.5Q351 13 303 30Q255 47 216 70Q177 93 145 119V205H199Q223 180 254.5 157Q286 134 327 116.5Q368 99 419.5 88.5Q471 78 535 78Q631 78 707.5 106Q784 134 837.5 185.5Q891 237 919.5 311.5Q948 386 948 479Q948 573 922 641Q896 709 850 752Q804 795 741.5 815.5Q679 836 606 836Q544 836 493.5 822.5Q443 809 402.5 787.5Q362 766 332 739Q302 712 281 686H201V1434H987V1339H289V801H295Q313 819 344 840.5Q375 862 417 880.5Q459 899 512 911.5Q565 924 629 924Q715 924 793 898.5Q871 873 930 819.5Q989 766 1024 683Q1059 600 1059 485Z" glyph-name="five" horiz-adv-x="1229" unicode="5" /><glyph d="M25 1067H166V1174Q166 1244 185 1294Q204 1344 237 1376.5Q270 1409 316 1424.5Q362 1440 416 1440Q454 1440 480 1436Q506 1432 526 1427V1356H440Q399 1356 367 1347.5Q335 1339 313 1317Q291 1295 279.5 1258.5Q268 1222 268 1167V1067H526V989H268V0H166V989H25ZM700 0V1434H737Q759 1434 772.5 1430.5Q786 1427 792.5 1416.5Q799 1406 801 1386.5Q803 1367 803 1335V0Z" glyph-name="fl" horiz-adv-x="952" unicode="&#64258;" /><glyph d="M506 874 543 1174Q551 1245 574.5 1295.5Q598 1346 634 1378Q670 1410 718.5 1425Q767 1440 825 1440Q862 1440 891 1436Q920 1432 940 1425V1356H848Q808 1356 774 1346.5Q740 1337 714.5 1314.5Q689 1292 672 1255.5Q655 1219 649 1165L612 874H889V793H602L485 -174H379L496 793H309V874Z" glyph-name="florin" horiz-adv-x="1229" unicode="&#402;" /><glyph d="M815 0V371H127V475L825 1434H926V457H1110V371H926V0ZM223 457H815V1268H811L223 461Z" glyph-name="four" horiz-adv-x="1229" unicode="4" /><glyph d="M-256 -70H-354L655 1493H754Z" glyph-name="fraction" horiz-adv-x="399" unicode="&#8260;" /><glyph d="M987 12Q987 -76 951 -142Q915 -208 853.5 -252Q792 -296 710 -318Q628 -340 535 -340Q397 -340 293 -312Q189 -284 127 -246V-166H168Q219 -206 311.5 -233Q404 -260 522 -260Q597 -260 662.5 -245Q728 -230 777 -197Q826 -164 854.5 -111Q883 -58 883 18V197Q849 157 807 122.5Q765 88 715.5 62.5Q666 37 608.5 22.5Q551 8 487 8Q410 8 335 35Q260 62 201 124Q142 186 106 286Q70 386 70 532Q70 683 110.5 787.5Q151 892 216 957Q281 1022 363 1050.5Q445 1079 528 1079Q652 1079 738 1042.5Q824 1006 883 946Q885 970 889 992Q893 1014 900.5 1030.5Q908 1047 920.5 1057Q933 1067 954 1067H987ZM502 88Q566 88 621 104.5Q676 121 723 150Q770 179 809.5 218.5Q849 258 883 303V852Q851 886 815.5 913.5Q780 941 739.5 960Q699 979 651.5 989Q604 999 547 999Q481 999 414.5 979Q348 959 294.5 907Q241 855 207.5 765.5Q174 676 174 537Q174 405 202.5 318.5Q231 232 277.5 181Q324 130 383 109Q442 88 502 88Z" glyph-name="g" horiz-adv-x="1135" unicode="g" /><glyph d="M147 1014Q147 1121 180.5 1201.5Q214 1282 275 1336Q336 1390 420.5 1417Q505 1444 606 1444Q681 1444 747 1430Q813 1416 862 1386Q911 1356 939 1308.5Q967 1261 967 1194Q967 1148 947.5 1107.5Q928 1067 896 1030Q864 993 823 959.5Q782 926 739 895Q704 870 679 849.5Q654 829 638 810Q622 791 614 772.5Q606 754 606 733Q606 711 616 693Q626 675 649.5 658.5Q673 642 710.5 625Q748 608 803 588Q864 565 917 540Q970 515 1009 481.5Q1048 448 1070 401Q1092 354 1092 287Q1092 215 1066.5 160Q1041 105 994 67.5Q947 30 881.5 11Q816 -8 735 -8Q638 -8 570.5 15.5Q503 39 461 70V145H502Q539 116 595.5 94Q652 72 735 72Q859 72 926 123.5Q993 175 993 279Q993 327 977 360Q961 393 930 418.5Q899 444 855 463.5Q811 483 754 504Q696 525 651 546Q606 567 575 591.5Q544 616 528 647.5Q512 679 512 721Q512 756 523 785.5Q534 815 554.5 841.5Q575 868 603.5 893.5Q632 919 668 948Q707 978 742.5 1006Q778 1034 805 1062.5Q832 1091 848 1122.5Q864 1154 864 1192Q864 1237 844.5 1269.5Q825 1302 790.5 1323Q756 1344 708.5 1354Q661 1364 606 1364Q522 1364 456 1340.5Q390 1317 344.5 1271.5Q299 1226 274.5 1160Q250 1094 250 1010V0H147Z" glyph-name="germandbls" horiz-adv-x="1159" unicode="&#223;" /><glyph d="M410 1174 217 1393V1434H317L471 1206V1174Z" glyph-name="grave" horiz-adv-x="848" unicode="`" /><glyph d="M410 1481 252 1665V1704H354L471 1511V1481Z" glyph-name="grave.cap" horiz-adv-x="848" /><glyph d="M1018 631 256 229H219V315L913 672V674L219 1032V1120H256L1018 715Z" glyph-name="greater" horiz-adv-x="1229" unicode="&gt;" /><glyph d="M63 504V559L385 969H471V930L166 535V530L471 133V98H385ZM406 504V559L727 969H813V930L508 535V530L813 133V98H727Z" glyph-name="guillemotleft" horiz-adv-x="877" unicode="&#171;" /><glyph d="M406 133 711 530V537L406 930V969H492L813 559V506L492 98H406ZM63 133 369 530V537L63 930V969H150L471 559V506L150 98H63Z" glyph-name="guillemotright" horiz-adv-x="877" unicode="&#187;" /><glyph d="M63 504V559L385 969H471V930L166 535V530L471 133V98H385Z" glyph-name="guilsinglleft" horiz-adv-x="535" unicode="&#8249;" /><glyph d="M471 559V506L150 98H63V133L369 530V537L63 930V969H150Z" glyph-name="guilsinglright" horiz-adv-x="535" unicode="&#8250;" /><glyph d="M250 897Q295 933 347.5 966Q400 999 459 1024Q518 1049 583 1064Q648 1079 719 1079Q775 1079 825 1066Q875 1053 913 1020.5Q951 988 973 933.5Q995 879 995 795V0H893V782Q893 846 876.5 887Q860 928 831.5 951.5Q803 975 764 984Q725 993 680 993Q621 993 563.5 978Q506 963 451.5 937.5Q397 912 346 879.5Q295 847 250 813V0H147V1434H184Q206 1434 219 1431Q232 1428 239 1417.5Q246 1407 248 1387.5Q250 1368 250 1335Z" glyph-name="h" horiz-adv-x="1133" unicode="h" /><glyph d="M276 1200 379 1434H467V1393L340 1174H276ZM518 1200 621 1434H709V1393L582 1174H518Z" glyph-name="hungarumlaut" horiz-adv-x="848" unicode="&#733;" /><glyph d="M276 1507 360 1704H451V1665L340 1481H276ZM518 1507 602 1704H692V1665L582 1481H518Z" glyph-name="hungarumlaut.cap" horiz-adv-x="848" /><glyph d="M51 655H416V565H51Z" glyph-name="hyphen" horiz-adv-x="467" unicode="-" /><glyph d="M152 0V1067H184Q207 1067 221 1063.5Q235 1060 242.5 1048.5Q250 1037 252 1015Q254 993 254 956V0ZM205 1231Q176 1231 155.5 1251Q135 1271 135 1300Q135 1328 155.5 1349Q176 1370 205 1370Q234 1370 254 1349Q274 1328 274 1300Q274 1271 254 1251Q234 1231 205 1231Z" glyph-name="i" horiz-adv-x="408" unicode="i" /><glyph d="M152 0V1067H184Q207 1067 221 1063.5Q235 1060 242.5 1048.5Q250 1037 252 1015Q254 993 254 956V0ZM167 1174V1206L320 1434H423V1393L230 1174Z" glyph-name="iacute" horiz-adv-x="408" unicode="&#237;" /><glyph d="M152 0V1067H184Q207 1067 221 1063.5Q235 1060 242.5 1048.5Q250 1037 252 1015Q254 993 254 956V0ZM-23 1212 165 1434H247L431 1212V1174H370L202 1352L34 1174H-23Z" glyph-name="icircumflex" horiz-adv-x="408" unicode="&#238;" /><glyph d="M152 0V1067H184Q207 1067 221 1063.5Q235 1060 242.5 1048.5Q250 1037 252 1015Q254 993 254 956V0ZM58 1231Q29 1231 9 1251Q-11 1271 -11 1298Q-11 1327 9 1347.5Q29 1368 58 1368Q87 1368 107.5 1347.5Q128 1327 128 1298Q128 1271 107.5 1251Q87 1231 58 1231ZM351 1231Q323 1231 303.5 1251Q284 1271 284 1298Q284 1327 303.5 1347.5Q323 1368 351 1368Q380 1368 400.5 1347.5Q421 1327 421 1298Q421 1271 400.5 1251Q380 1231 351 1231Z" glyph-name="idieresis" horiz-adv-x="408" unicode="&#239;" /><glyph d="M152 0V1067H184Q207 1067 221 1063.5Q235 1060 242.5 1048.5Q250 1037 252 1015Q254 993 254 956V0ZM182 1174 -11 1393V1434H89L243 1206V1174Z" glyph-name="igrave" horiz-adv-x="408" unicode="&#236;" /><glyph d="M-47 -258H10Q85 -258 118.5 -218.5Q152 -179 152 -106V1067H182Q206 1067 220 1063.5Q234 1060 241.5 1048.5Q249 1037 251.5 1015Q254 993 254 956V-111Q254 -217 200.5 -276.5Q147 -336 39 -336Q13 -336 -8 -334.5Q-29 -333 -47 -328ZM205 1231Q176 1231 155.5 1251Q135 1271 135 1300Q135 1328 155.5 1349Q176 1370 205 1370Q234 1370 254 1349Q274 1328 274 1300Q274 1271 254 1251Q234 1231 205 1231Z" glyph-name="j" horiz-adv-x="408" unicode="j" /><glyph d="M250 465 803 1067H883V1026L510 623L915 39V0H825L442 553L250 346V0H147V1434H184Q206 1434 219.5 1430.5Q233 1427 239.5 1416.5Q246 1406 248 1386.5Q250 1367 250 1335Z" glyph-name="k" horiz-adv-x="975" unicode="k" /><glyph d="M150 0V1434H186Q208 1434 221.5 1430.5Q235 1427 241.5 1416.5Q248 1406 250 1386.5Q252 1367 252 1335V0Z" glyph-name="l" horiz-adv-x="401" unicode="l" /><glyph d="M211 717 975 1120H1010V1034L315 678V674L1010 315V229H975L211 633Z" glyph-name="less" horiz-adv-x="1229" unicode="&lt;" /><glyph d="M152 0V758L-4 653V741L152 846V1434H186Q209 1434 222.5 1430.5Q236 1427 243 1416.5Q250 1406 252 1386.5Q254 1367 254 1335V915L414 1024V936L254 827V0Z" glyph-name="lslash" horiz-adv-x="403" unicode="&#322;" /><glyph d="M250 905Q288 936 334.5 967Q381 998 434.5 1023Q488 1048 548.5 1063.5Q609 1079 676 1079Q719 1079 760 1069.5Q801 1060 834.5 1039Q868 1018 893 984.5Q918 951 930 903Q970 937 1018.5 969Q1067 1001 1121 1025.5Q1175 1050 1235 1064.5Q1295 1079 1360 1079Q1414 1079 1462 1065Q1510 1051 1546 1019.5Q1582 988 1603 938.5Q1624 889 1624 817V0H1522V791Q1522 850 1508 889Q1494 928 1468.5 951Q1443 974 1406 983.5Q1369 993 1323 993Q1266 993 1214.5 978.5Q1163 964 1115.5 940Q1068 916 1024 885Q980 854 938 821V0H836V791Q836 850 821.5 889Q807 928 780.5 951Q754 974 718 983.5Q682 993 639 993Q580 993 527.5 978.5Q475 964 427 940Q379 916 335 884.5Q291 853 250 819V0H147V1067H195Q212 1067 222.5 1063.5Q233 1060 239 1049Q245 1038 247.5 1017Q250 996 250 961Z" glyph-name="m" horiz-adv-x="1761" unicode="m" /><glyph d="M649 1251H199V1327H649Z" glyph-name="macron" horiz-adv-x="848" unicode="&#175;" /><glyph d="M659 1536H188V1616H659Z" glyph-name="macron.cap" horiz-adv-x="848" /><glyph d="M207 662V754H1026V662Z" glyph-name="minus" horiz-adv-x="1229" unicode="&#8722;" /><glyph d="M614 625 301 309 240 377 553 692 240 1010 301 1077 614 762 928 1077 991 1010 676 692 991 377 928 309Z" glyph-name="multiply" horiz-adv-x="1229" unicode="&#215;" /><glyph d="M250 897Q295 933 347.5 966Q400 999 459 1024Q518 1049 583 1064Q648 1079 719 1079Q775 1079 825 1066Q875 1053 913 1020.5Q951 988 973 933.5Q995 879 995 795V0H893V782Q893 846 876.5 887Q860 928 831.5 951.5Q803 975 764 984Q725 993 680 993Q621 993 563.5 978Q506 963 451.5 937.5Q397 912 346 879.5Q295 847 250 813V0H147V1067H195Q212 1067 222.5 1063.5Q233 1060 239 1049Q245 1038 247.5 1017Q250 996 250 961Z" glyph-name="n" horiz-adv-x="1133" unicode="n" /><glyph d="M471 -8Q369 -8 297 9.5Q225 27 174 53V143H225Q240 132 264 120.5Q288 109 320.5 99.5Q353 90 392 84Q431 78 475 78Q727 78 857 248.5Q987 419 987 748V756Q910 666 800 613.5Q690 561 557 561Q468 561 386.5 585Q305 609 243.5 659.5Q182 710 145.5 788.5Q109 867 109 975Q109 1084 144.5 1170.5Q180 1257 244 1317.5Q308 1378 397 1410Q486 1442 592 1442Q699 1442 791.5 1402Q884 1362 952 1277Q1020 1192 1059 1061Q1098 930 1098 748Q1098 561 1055 419.5Q1012 278 931 183Q850 88 734 40Q618 -8 471 -8ZM580 647Q643 647 700.5 662Q758 677 808.5 704Q859 731 903 768Q947 805 983 850Q973 985 940.5 1081Q908 1177 857 1238Q806 1299 739 1327.5Q672 1356 592 1356Q508 1356 439 1331Q370 1306 321 1257.5Q272 1209 245.5 1139Q219 1069 219 979Q219 890 246.5 827Q274 764 322 724Q370 684 436 665.5Q502 647 580 647Z" glyph-name="nine" horiz-adv-x="1229" unicode="9" /><glyph glyph-name="nonmarkingreturn" horiz-adv-x="614" /><glyph d="M250 897Q295 933 347.5 966Q400 999 459 1024Q518 1049 583 1064Q648 1079 719 1079Q775 1079 825 1066Q875 1053 913 1020.5Q951 988 973 933.5Q995 879 995 795V0H893V782Q893 846 876.5 887Q860 928 831.5 951.5Q803 975 764 984Q725 993 680 993Q621 993 563.5 978Q506 963 451.5 937.5Q397 912 346 879.5Q295 847 250 813V0H147V1067H195Q212 1067 222.5 1063.5Q233 1060 239 1049Q245 1038 247.5 1017Q250 996 250 961ZM318 1239Q323 1267 335.5 1291Q348 1315 367 1333Q386 1351 411 1361.5Q436 1372 467 1372Q501 1372 530.5 1359.5Q560 1347 587 1332Q614 1317 638 1304.5Q662 1292 684 1292Q719 1292 740.5 1316Q762 1340 768 1378H838V1339Q832 1312 819.5 1287.5Q807 1263 788.5 1245Q770 1227 745.5 1216.5Q721 1206 690 1206Q655 1206 625 1219Q595 1232 568.5 1247Q542 1262 518.5 1275Q495 1288 473 1288Q438 1288 416 1264Q394 1240 387 1202H318Z" glyph-name="ntilde" horiz-adv-x="1133" unicode="&#241;" /><glyph d="M186 969H432L500 1434H575L506 969H786L856 1434H932L862 969H1096V872H850L811 616H1047V518H799L723 0H647L723 518H442L367 0H291L369 518H133V616H381L420 872H186ZM457 616H737L776 872H494Z" glyph-name="numbersign" horiz-adv-x="1229" unicode="#" /><glyph d="M563 -8Q452 -8 361 29.5Q270 67 205 137Q140 207 104 307.5Q68 408 68 535Q68 661 104 761.5Q140 862 205 932.5Q270 1003 361 1041Q452 1079 563 1079Q675 1079 767 1041Q859 1003 924 932.5Q989 862 1025 761.5Q1061 661 1061 535Q1061 408 1025 307.5Q989 207 924 137Q859 67 767 29.5Q675 -8 563 -8ZM563 72Q654 72 727 103Q800 134 851 193.5Q902 253 929 339Q956 425 956 535Q956 644 929 730Q902 816 851 876Q800 936 727 967.5Q654 999 563 999Q473 999 400.5 967.5Q328 936 277 876Q226 816 199 730Q172 644 172 535Q172 425 199 339Q226 253 277 193.5Q328 134 400.5 103Q473 72 563 72Z" glyph-name="o" horiz-adv-x="1128" unicode="o" /><glyph d="M563 -8Q452 -8 361 29.5Q270 67 205 137Q140 207 104 307.5Q68 408 68 535Q68 661 104 761.5Q140 862 205 932.5Q270 1003 361 1041Q452 1079 563 1079Q675 1079 767 1041Q859 1003 924 932.5Q989 862 1025 761.5Q1061 661 1061 535Q1061 408 1025 307.5Q989 207 924 137Q859 67 767 29.5Q675 -8 563 -8ZM563 72Q654 72 727 103Q800 134 851 193.5Q902 253 929 339Q956 425 956 535Q956 644 929 730Q902 816 851 876Q800 936 727 967.5Q654 999 563 999Q473 999 400.5 967.5Q328 936 277 876Q226 816 199 730Q172 644 172 535Q172 425 199 339Q226 253 277 193.5Q328 134 400.5 103Q473 72 563 72ZM527 1174V1206L680 1434H783V1393L590 1174Z" glyph-name="oacute" horiz-adv-x="1128" unicode="&#243;" /><glyph d="M563 -8Q452 -8 361 29.5Q270 67 205 137Q140 207 104 307.5Q68 408 68 535Q68 661 104 761.5Q140 862 205 932.5Q270 1003 361 1041Q452 1079 563 1079Q675 1079 767 1041Q859 1003 924 932.5Q989 862 1025 761.5Q1061 661 1061 535Q1061 408 1025 307.5Q989 207 924 137Q859 67 767 29.5Q675 -8 563 -8ZM563 72Q654 72 727 103Q800 134 851 193.5Q902 253 929 339Q956 425 956 535Q956 644 929 730Q902 816 851 876Q800 936 727 967.5Q654 999 563 999Q473 999 400.5 967.5Q328 936 277 876Q226 816 199 730Q172 644 172 535Q172 425 199 339Q226 253 277 193.5Q328 134 400.5 103Q473 72 563 72ZM334 1212 522 1434H604L788 1212V1174H727L559 1352L391 1174H334Z" glyph-name="ocircumflex" horiz-adv-x="1128" unicode="&#244;" /><glyph d="M563 -8Q452 -8 361 29.5Q270 67 205 137Q140 207 104 307.5Q68 408 68 535Q68 661 104 761.5Q140 862 205 932.5Q270 1003 361 1041Q452 1079 563 1079Q675 1079 767 1041Q859 1003 924 932.5Q989 862 1025 761.5Q1061 661 1061 535Q1061 408 1025 307.5Q989 207 924 137Q859 67 767 29.5Q675 -8 563 -8ZM563 72Q654 72 727 103Q800 134 851 193.5Q902 253 929 339Q956 425 956 535Q956 644 929 730Q902 816 851 876Q800 936 727 967.5Q654 999 563 999Q473 999 400.5 967.5Q328 936 277 876Q226 816 199 730Q172 644 172 535Q172 425 199 339Q226 253 277 193.5Q328 134 400.5 103Q473 72 563 72ZM415 1231Q386 1231 366 1251Q346 1271 346 1298Q346 1327 366 1347.5Q386 1368 415 1368Q444 1368 464.5 1347.5Q485 1327 485 1298Q485 1271 464.5 1251Q444 1231 415 1231ZM708 1231Q680 1231 660.5 1251Q641 1271 641 1298Q641 1327 660.5 1347.5Q680 1368 708 1368Q737 1368 757.5 1347.5Q778 1327 778 1298Q778 1271 757.5 1251Q737 1231 708 1231Z" glyph-name="odieresis" horiz-adv-x="1128" unicode="&#246;" /><glyph d="M563 -8Q452 -8 361 29.5Q270 67 205 137Q140 207 104 307.5Q68 408 68 535Q68 661 104 761.5Q140 862 205 932.5Q270 1003 361 1041Q452 1079 563 1079Q727 1079 841 1000.5Q955 922 1008 778Q1035 849 1076.5 905Q1118 961 1172 999.5Q1226 1038 1291 1058.5Q1356 1079 1430 1079Q1528 1079 1609 1050Q1690 1021 1747.5 960Q1805 899 1836.5 804.5Q1868 710 1868 580Q1868 564 1867 549Q1866 534 1866 530H1061Q1061 304 1163 190Q1265 76 1466 76Q1530 76 1581.5 85Q1633 94 1674 109.5Q1715 125 1746 145Q1777 165 1798 186H1843V111Q1814 88 1777.5 67Q1741 46 1694 29Q1647 12 1588 2Q1529 -8 1456 -8Q1282 -8 1168.5 67.5Q1055 143 1006 283Q952 143 838.5 67.5Q725 -8 563 -8ZM563 72Q654 72 727 103Q800 134 851 193.5Q902 253 929 339Q956 425 956 535Q956 644 929 730Q902 816 851 876Q800 936 727 967.5Q654 999 563 999Q473 999 400.5 967.5Q328 936 277 876Q226 816 199 730Q172 644 172 535Q172 425 199 339Q226 253 277 193.5Q328 134 400.5 103Q473 72 563 72ZM1430 1001Q1356 1001 1293 976.5Q1230 952 1182 903Q1134 854 1103 780Q1072 706 1063 608H1763Q1761 715 1737 789.5Q1713 864 1669.5 911Q1626 958 1565 979.5Q1504 1001 1430 1001Z" glyph-name="oe" horiz-adv-x="1931" unicode="&#339;" /><glyph d="M467 -336Q390 -336 344.5 -297.5Q299 -259 299 -190Q299 -160 310.5 -133Q322 -106 340.5 -81.5Q359 -57 382 -36.5Q405 -16 428 0H520Q461 -45 428 -86.5Q395 -128 395 -174Q395 -214 418.5 -238Q442 -262 496 -262H561V-322Q541 -330 518.5 -333Q496 -336 467 -336Z" glyph-name="ogonek" horiz-adv-x="823" unicode="&#731;" /><glyph d="M563 -8Q452 -8 361 29.5Q270 67 205 137Q140 207 104 307.5Q68 408 68 535Q68 661 104 761.5Q140 862 205 932.5Q270 1003 361 1041Q452 1079 563 1079Q675 1079 767 1041Q859 1003 924 932.5Q989 862 1025 761.5Q1061 661 1061 535Q1061 408 1025 307.5Q989 207 924 137Q859 67 767 29.5Q675 -8 563 -8ZM563 72Q654 72 727 103Q800 134 851 193.5Q902 253 929 339Q956 425 956 535Q956 644 929 730Q902 816 851 876Q800 936 727 967.5Q654 999 563 999Q473 999 400.5 967.5Q328 936 277 876Q226 816 199 730Q172 644 172 535Q172 425 199 339Q226 253 277 193.5Q328 134 400.5 103Q473 72 563 72ZM537 1174 344 1393V1434H444L598 1206V1174Z" glyph-name="ograve" horiz-adv-x="1128" unicode="&#242;" /><glyph d="M641 0V1315L266 1098H219V1169L678 1434H752V0Z" glyph-name="one" horiz-adv-x="1229" unicode="1" /><glyph d="M1366 0H862V78L1096 291Q1141 333 1173.5 367Q1206 401 1227 431.5Q1248 462 1258 491.5Q1268 521 1268 553Q1268 619 1228.5 657.5Q1189 696 1112 696Q1049 696 1004 673Q959 650 928 621H885V682Q922 716 981.5 743Q1041 770 1122 770Q1177 770 1222.5 755Q1268 740 1299.5 712Q1331 684 1348.5 645.5Q1366 607 1366 559Q1366 518 1352 480.5Q1338 443 1311.5 405.5Q1285 368 1246 328Q1207 288 1157 242L977 78H1366ZM217 670V1333L51 1241H23V1309L246 1434H313V670ZM178 -70H80L1090 1493H1188Z" glyph-name="onehalf" horiz-adv-x="1409" unicode="&#189;" /><glyph d="M1102 0V188H711V266L1104 764H1192V258H1303V188H1192V0ZM793 258H1102V641H1098L793 262ZM217 670V1333L51 1241H23V1309L246 1434H313V670ZM178 -70H80L1090 1493H1188Z" glyph-name="onequarter" horiz-adv-x="1341" unicode="&#188;" /><glyph d="M653 651Q596 588 523 554Q450 520 348 520Q284 520 230.5 535.5Q177 551 138 583Q99 615 77 664Q55 713 55 780Q55 849 82 899.5Q109 950 157 984Q205 1018 271.5 1034.5Q338 1051 418 1051Q483 1051 540.5 1043.5Q598 1036 653 1022V1171Q653 1227 638.5 1264Q624 1301 596 1322.5Q568 1344 527 1353Q486 1362 432 1362Q333 1362 263.5 1339.5Q194 1317 152 1286H115V1360Q169 1392 250.5 1417Q332 1442 446 1442Q512 1442 568 1429.5Q624 1417 664.5 1387Q705 1357 727.5 1306.5Q750 1256 750 1180V526H711Q677 526 665 547.5Q653 569 653 629ZM360 594Q414 594 457 605Q500 616 535 635Q570 654 598.5 680.5Q627 707 653 739V954Q601 964 546.5 971.5Q492 979 432 979Q369 979 317.5 968.5Q266 958 229 935Q192 912 172 875Q152 838 152 786Q152 733 167.5 696.5Q183 660 211 637Q239 614 277 604Q315 594 360 594Z" glyph-name="ordfeminine" horiz-adv-x="864" unicode="&#170;" /><glyph d="M498 520Q406 520 327.5 550.5Q249 581 191.5 640Q134 699 101 784.5Q68 870 68 981Q68 1090 101 1175.5Q134 1261 191.5 1320.5Q249 1380 327.5 1411Q406 1442 498 1442Q590 1442 668.5 1411Q747 1380 805 1320.5Q863 1261 895.5 1175.5Q928 1090 928 981Q928 870 895.5 784.5Q863 699 805 640Q747 581 668.5 550.5Q590 520 498 520ZM498 600Q572 600 633 624Q694 648 737 696Q780 744 803.5 815Q827 886 827 981Q827 1073 803.5 1144.5Q780 1216 737 1264.5Q694 1313 633 1338.5Q572 1364 498 1364Q423 1364 362.5 1338.5Q302 1313 258.5 1264.5Q215 1216 191.5 1144.5Q168 1073 168 981Q168 886 191.5 815Q215 744 258.5 696Q302 648 362.5 624Q423 600 498 600Z" glyph-name="ordmasculine" horiz-adv-x="995" unicode="&#186;" /><glyph d="M563 -8Q473 -8 396.5 16Q320 40 258 86L152 -49H78V-16L201 139Q138 210 103 309Q68 408 68 535Q68 661 104 761.5Q140 862 205 932.5Q270 1003 361 1041Q452 1079 563 1079Q653 1079 729.5 1054Q806 1029 866 983L965 1108H1040V1077L926 932Q991 861 1026 760.5Q1061 660 1061 535Q1061 408 1025 307.5Q989 207 924 137Q859 67 767 29.5Q675 -8 563 -8ZM563 72Q654 72 727 103Q800 134 851 193.5Q902 253 929 339Q956 425 956 535Q956 739 868 860L311 154Q408 72 563 72ZM172 535Q172 329 258 211L813 918Q717 999 563 999Q473 999 400.5 967.5Q328 936 277 876Q226 816 199 730Q172 644 172 535Z" glyph-name="oslash" horiz-adv-x="1128" unicode="&#248;" /><glyph d="M563 -8Q452 -8 361 29.5Q270 67 205 137Q140 207 104 307.5Q68 408 68 535Q68 661 104 761.5Q140 862 205 932.5Q270 1003 361 1041Q452 1079 563 1079Q675 1079 767 1041Q859 1003 924 932.5Q989 862 1025 761.5Q1061 661 1061 535Q1061 408 1025 307.5Q989 207 924 137Q859 67 767 29.5Q675 -8 563 -8ZM563 72Q654 72 727 103Q800 134 851 193.5Q902 253 929 339Q956 425 956 535Q956 644 929 730Q902 816 851 876Q800 936 727 967.5Q654 999 563 999Q473 999 400.5 967.5Q328 936 277 876Q226 816 199 730Q172 644 172 535Q172 425 199 339Q226 253 277 193.5Q328 134 400.5 103Q473 72 563 72ZM303 1239Q308 1267 320.5 1291Q333 1315 352 1333Q371 1351 396 1361.5Q421 1372 452 1372Q486 1372 515.5 1359.5Q545 1347 572 1332Q599 1317 623 1304.5Q647 1292 669 1292Q704 1292 725.5 1316Q747 1340 753 1378H823V1339Q817 1312 804.5 1287.5Q792 1263 773.5 1245Q755 1227 730.5 1216.5Q706 1206 675 1206Q640 1206 610 1219Q580 1232 553.5 1247Q527 1262 503.5 1275Q480 1288 458 1288Q423 1288 401 1264Q379 1240 372 1202H303Z" glyph-name="otilde" horiz-adv-x="1128" unicode="&#245;" /><glyph d="M250 877Q281 914 322 950Q363 986 413.5 1014.5Q464 1043 524 1061Q584 1079 655 1079Q731 1079 804.5 1053.5Q878 1028 936 967.5Q994 907 1029.5 805.5Q1065 704 1065 551Q1065 393 1024.5 286.5Q984 180 918.5 116Q853 52 771 25Q689 -2 606 -2Q542 -2 490 7Q438 16 395 32.5Q352 49 316.5 72Q281 95 250 123V-332H147V1067H195Q212 1067 222.5 1063.5Q233 1060 239 1049Q245 1038 247.5 1017Q250 996 250 961ZM639 995Q574 995 518.5 976.5Q463 958 414.5 927Q366 896 325 857Q284 818 250 776V221Q281 186 316.5 160Q352 134 393 116Q434 98 482 89Q530 80 588 80Q654 80 720.5 100Q787 120 840.5 172Q894 224 927.5 313.5Q961 403 961 541Q961 632 947.5 701Q934 770 910.5 820.5Q887 871 855.5 904.5Q824 938 788.5 958Q753 978 714.5 986.5Q676 995 639 995Z" glyph-name="p" horiz-adv-x="1135" unicode="p" /><glyph d="M582 692H549Q448 692 360.5 709Q273 726 208.5 768.5Q144 811 107 882.5Q70 954 70 1063Q70 1176 107.5 1248Q145 1320 211 1361.5Q277 1403 367 1418.5Q457 1434 561 1434H948V-186H854V1343H676V-186H582Z" glyph-name="paragraph" horiz-adv-x="1122" unicode="&#182;" /><glyph d="M526 1448Q492 1429 452 1400.5Q412 1372 372 1329.5Q332 1287 294.5 1229.5Q257 1172 228.5 1096Q200 1020 183 924Q166 828 166 709Q166 591 182.5 496Q199 401 227.5 325Q256 249 292.5 191Q329 133 369 90Q409 47 449.5 17.5Q490 -12 526 -31V-100H494Q450 -82 401 -50Q352 -18 304 29.5Q256 77 212 141.5Q168 206 134.5 290Q101 374 81 478Q61 582 61 709Q61 837 81 941.5Q101 1046 134.5 1130Q168 1214 212 1278Q256 1342 304 1389Q352 1436 401 1467.5Q450 1499 494 1518H526Z" glyph-name="parenleft" horiz-adv-x="561" unicode="(" /><glyph d="M35 1518H68Q111 1499 160 1467.5Q209 1436 257 1389Q305 1342 349 1278Q393 1214 426.5 1130Q460 1046 480 941.5Q500 837 500 709Q500 582 480 478Q460 374 426.5 290Q393 206 349 141.5Q305 77 257 29.5Q209 -18 160 -50Q111 -82 68 -100H35V-31Q71 -12 111.5 17.5Q152 47 192 90Q232 133 268.5 191Q305 249 333.5 325Q362 401 378.5 496Q395 591 395 709Q395 828 378 924Q361 1020 332.5 1096Q304 1172 266.5 1229.5Q229 1287 189 1329.5Q149 1372 109 1400.5Q69 1429 35 1448Z" glyph-name="parenright" horiz-adv-x="561" unicode=")" /><glyph d="M442 805Q490 805 529 823.5Q568 842 596 877.5Q624 913 639.5 964.5Q655 1016 655 1083Q655 1152 639.5 1205Q624 1258 596 1294Q568 1330 529 1349Q490 1368 442 1368Q345 1368 287 1294.5Q229 1221 229 1083Q229 949 287 877Q345 805 442 805ZM442 731Q379 731 322.5 753.5Q266 776 223.5 820.5Q181 865 156 931.5Q131 998 131 1087Q131 1175 156 1242Q181 1309 223.5 1353Q266 1397 322.5 1419.5Q379 1442 442 1442Q504 1442 560.5 1419.5Q617 1397 659.5 1353Q702 1309 727 1242Q752 1175 752 1087Q752 998 727 931.5Q702 865 659.5 820.5Q617 776 560.5 753.5Q504 731 442 731ZM1276 1493H1374L365 -70H266ZM1198 66Q1246 66 1285 84.5Q1324 103 1352 139Q1380 175 1395.5 227Q1411 279 1411 346Q1411 413 1395.5 466Q1380 519 1352 555Q1324 591 1285 610Q1246 629 1198 629Q1150 629 1110.5 610Q1071 591 1043 555Q1015 519 1000 466Q985 413 985 346Q985 212 1043 139Q1101 66 1198 66ZM1198 -8Q1135 -8 1078.5 14.5Q1022 37 979.5 81.5Q937 126 912 192.5Q887 259 887 348Q887 437 912 504Q937 571 979.5 615.5Q1022 660 1078.5 682.5Q1135 705 1198 705Q1260 705 1316 682.5Q1372 660 1414.5 615.5Q1457 571 1482 504Q1507 437 1507 348Q1507 259 1482 192.5Q1457 126 1414.5 81.5Q1372 37 1316 14.5Q1260 -8 1198 -8Z" glyph-name="percent" horiz-adv-x="1638" unicode="%" /><glyph d="M307 -8Q273 -8 251 14Q229 36 229 70Q229 102 251 126Q273 150 307 150Q323 150 337.5 143.5Q352 137 363 126Q374 115 380.5 100.5Q387 86 387 70Q387 36 363 14Q339 -8 307 -8Z" glyph-name="period" horiz-adv-x="614" unicode="." /><glyph d="M147 561Q113 561 91.5 583Q70 605 70 639Q70 671 91.5 695Q113 719 147 719Q163 719 177.5 712.5Q192 706 203 695Q214 684 220.5 669.5Q227 655 227 639Q227 605 203 583Q179 561 147 561Z" glyph-name="periodcentered" horiz-adv-x="295" unicode="&#183;" /><glyph d="M440 805Q488 805 527 823.5Q566 842 594 877.5Q622 913 637.5 964.5Q653 1016 653 1083Q653 1152 637.5 1205Q622 1258 594 1294Q566 1330 527 1349Q488 1368 440 1368Q343 1368 285 1294.5Q227 1221 227 1083Q227 949 285 877Q343 805 440 805ZM440 731Q377 731 320.5 753.5Q264 776 221.5 820.5Q179 865 154 931.5Q129 998 129 1087Q129 1175 154 1242Q179 1309 221.5 1353Q264 1397 320.5 1419.5Q377 1442 440 1442Q502 1442 558.5 1419.5Q615 1397 657.5 1353Q700 1309 725 1242Q750 1175 750 1087Q750 998 725 931.5Q700 865 657.5 820.5Q615 776 558.5 753.5Q502 731 440 731ZM1313 1493H1411L401 -70H303ZM1272 66Q1320 66 1359 84.5Q1398 103 1426 139Q1454 175 1469.5 227Q1485 279 1485 346Q1485 413 1469.5 466Q1454 519 1426 555Q1398 591 1359 610Q1320 629 1272 629Q1224 629 1184.5 610Q1145 591 1117 555Q1089 519 1074 466Q1059 413 1059 346Q1059 212 1117 139Q1175 66 1272 66ZM1272 -8Q1209 -8 1152.5 14.5Q1096 37 1053.5 81.5Q1011 126 986 192.5Q961 259 961 348Q961 437 986 504Q1011 571 1053.5 615.5Q1096 660 1152.5 682.5Q1209 705 1272 705Q1334 705 1390 682.5Q1446 660 1488.5 615.5Q1531 571 1556 504Q1581 437 1581 348Q1581 259 1556 192.5Q1531 126 1488.5 81.5Q1446 37 1390 14.5Q1334 -8 1272 -8ZM2015 66Q2063 66 2102 84.5Q2141 103 2169 139Q2197 175 2212.5 227Q2228 279 2228 346Q2228 413 2212.5 466Q2197 519 2169 555Q2141 591 2102 610Q2063 629 2015 629Q1967 629 1928 610Q1889 591 1861 555Q1833 519 1817.5 466Q1802 413 1802 346Q1802 279 1817.5 227Q1833 175 1861 139Q1889 103 1928 84.5Q1967 66 2015 66ZM2015 -8Q1952 -8 1895.5 14.5Q1839 37 1796.5 81.5Q1754 126 1729 192.5Q1704 259 1704 348Q1704 437 1729 504Q1754 571 1796.5 615.5Q1839 660 1895.5 682.5Q1952 705 2015 705Q2078 705 2134.5 682.5Q2191 660 2234 615.5Q2277 571 2302 504Q2327 437 2327 348Q2327 259 2302 192.5Q2277 126 2234 81.5Q2191 37 2134.5 14.5Q2078 -8 2015 -8Z" glyph-name="perthousand" horiz-adv-x="2458" unicode="&#8240;" /><glyph d="M668 662V276H567V662H207V754H567V1139H668V754H1026V662Z" glyph-name="plus" horiz-adv-x="1229" unicode="+" /><glyph d="M883 190Q851 149 809 114Q767 79 717.5 53.5Q668 28 611.5 13Q555 -2 492 -2Q412 -2 336 24.5Q260 51 201 113Q142 175 106 276Q70 377 70 526Q70 681 110.5 787Q151 893 216 958Q281 1023 362.5 1051Q444 1079 526 1079Q653 1079 739.5 1043Q826 1007 885 944Q887 969 891.5 991Q896 1013 904 1030Q912 1047 924 1057Q936 1067 954 1067H987V-332H883ZM502 80Q567 80 622 96.5Q677 113 723.5 141.5Q770 170 809 209.5Q848 249 883 295V852Q851 886 816 913.5Q781 941 740 960Q699 979 650.5 989Q602 999 543 999Q475 999 409 978Q343 957 290.5 904.5Q238 852 206 761.5Q174 671 174 532Q174 398 202.5 311Q231 224 277.5 172.5Q324 121 383 100.5Q442 80 502 80Z" glyph-name="q" horiz-adv-x="1135" unicode="q" /><glyph d="M297 295Q286 378 291.5 438Q297 498 318.5 549Q340 600 379 647.5Q418 695 475 754Q512 791 552 829Q592 867 625.5 910.5Q659 954 680.5 1005.5Q702 1057 702 1120Q702 1233 635 1294.5Q568 1356 438 1356Q377 1356 328 1346Q279 1336 241 1319.5Q203 1303 174.5 1280.5Q146 1258 127 1233H74V1319Q101 1343 135.5 1365Q170 1387 214.5 1404Q259 1421 315 1431.5Q371 1442 440 1442Q526 1442 595 1421.5Q664 1401 712.5 1360.5Q761 1320 787 1258.5Q813 1197 813 1116Q813 1045 790 988.5Q767 932 729.5 883.5Q692 835 644 789.5Q596 744 545 694Q503 653 469.5 615.5Q436 578 414 533Q392 488 384 431Q376 374 385 295ZM348 -8Q314 -8 292 14Q270 36 270 70Q270 102 292 126Q314 150 348 150Q364 150 378.5 143.5Q393 137 404 126Q415 115 421.5 100.5Q428 86 428 70Q428 36 404 14Q380 -8 348 -8Z" glyph-name="question" horiz-adv-x="881" unicode="?" /><glyph d="M584 983Q595 900 590 840Q585 780 563 729Q541 678 502 630Q463 582 406 524Q370 487 329.5 449.5Q289 412 255.5 368.5Q222 325 200 274Q178 223 178 160Q178 47 246 -14.5Q314 -76 444 -76Q564 -76 639.5 -41Q715 -6 754 45H807V-41Q781 -65 746.5 -87Q712 -109 667 -126Q622 -143 565.5 -153.5Q509 -164 440 -164Q355 -164 286.5 -143.5Q218 -123 170 -82.5Q122 -42 96 19.5Q70 81 70 162Q70 233 92.5 289.5Q115 346 152.5 394.5Q190 443 238.5 488.5Q287 534 338 584Q380 624 413 662Q446 700 467.5 745Q489 790 497 847Q505 904 498 983ZM535 1286Q567 1286 589.5 1264Q612 1242 612 1210Q612 1176 589.5 1153Q567 1130 535 1130Q500 1130 477.5 1153Q455 1176 455 1210Q455 1242 477.5 1264Q500 1286 535 1286Z" glyph-name="questiondown" horiz-adv-x="881" unicode="&#191;" /><glyph d="M57 1341V1434H164V1341L145 1075H76ZM272 1341V1434H379V1341L362 1075H291Z" glyph-name="quotedbl" horiz-adv-x="436" unicode="&quot;" /><glyph d="M305 -88Q339 -80 361 -59Q383 -38 383 -10Q383 10 372 18Q361 26 348 35Q331 46 323 60.5Q315 75 315 98Q315 127 337 146.5Q359 166 391 166Q407 166 422 160Q437 154 448 141.5Q459 129 466 108Q473 87 473 57Q473 -38 428.5 -88Q384 -138 305 -152ZM66 -88Q100 -80 120.5 -59Q141 -38 141 -10Q141 10 130.5 18Q120 26 106 35Q91 46 83.5 60.5Q76 75 76 98Q76 127 98 146.5Q120 166 152 166Q184 166 208.5 141.5Q233 117 233 57Q233 -38 188.5 -88Q144 -138 66 -152Z" glyph-name="quotedblbase" horiz-adv-x="539" unicode="&#8222;" /><glyph d="M233 1378Q199 1370 178.5 1349Q158 1328 158 1300Q158 1280 168 1272.5Q178 1265 190 1255Q207 1244 215 1230.5Q223 1217 223 1194Q223 1163 201 1143.5Q179 1124 147 1124Q115 1124 90.5 1148.5Q66 1173 66 1233Q66 1328 110.5 1378Q155 1428 233 1442ZM473 1378Q439 1370 418 1349Q397 1328 397 1300Q397 1280 407.5 1272.5Q418 1265 432 1255Q448 1244 455.5 1230.5Q463 1217 463 1194Q463 1163 441 1143.5Q419 1124 387 1124Q371 1124 356 1130Q341 1136 330 1148.5Q319 1161 312 1182Q305 1203 305 1233Q305 1328 350 1378Q395 1428 473 1442Z" glyph-name="quotedblleft" horiz-adv-x="539" unicode="&#8220;" /><glyph d="M305 1190Q339 1198 361 1219Q383 1240 383 1268Q383 1286 372 1294.5Q361 1303 348 1311Q331 1323 323 1337Q315 1351 315 1374Q315 1403 337 1422.5Q359 1442 391 1442Q407 1442 422 1436Q437 1430 448 1417.5Q459 1405 466 1384.5Q473 1364 473 1335Q473 1238 428.5 1189Q384 1140 305 1126ZM66 1190Q100 1198 120.5 1219Q141 1240 141 1268Q141 1286 130.5 1294.5Q120 1303 106 1311Q91 1323 83.5 1337Q76 1351 76 1374Q76 1403 98 1422.5Q120 1442 152 1442Q184 1442 208.5 1418Q233 1394 233 1335Q233 1238 188.5 1189Q144 1140 66 1126Z" glyph-name="quotedblright" horiz-adv-x="539" unicode="&#8221;" /><glyph d="M233 1378Q199 1370 178.5 1349Q158 1328 158 1300Q158 1280 168 1272.5Q178 1265 190 1255Q207 1244 215 1230.5Q223 1217 223 1194Q223 1163 201 1143.5Q179 1124 147 1124Q115 1124 90.5 1148.5Q66 1173 66 1233Q66 1328 110.5 1378Q155 1428 233 1442Z" glyph-name="quoteleft" horiz-adv-x="299" unicode="&#8216;" /><glyph d="M66 1190Q100 1198 120.5 1219Q141 1240 141 1268Q141 1286 130.5 1294.5Q120 1303 106 1311Q91 1323 83.5 1337Q76 1351 76 1374Q76 1403 98 1422.5Q120 1442 152 1442Q184 1442 208.5 1418Q233 1394 233 1335Q233 1238 188.5 1189Q144 1140 66 1126Z" glyph-name="quoteright" horiz-adv-x="299" unicode="&#8217;" /><glyph d="M66 -88Q100 -80 120.5 -59Q141 -38 141 -10Q141 10 130.5 18Q120 26 106 35Q91 46 83.5 60.5Q76 75 76 98Q76 127 98 146.5Q120 166 152 166Q184 166 208.5 141.5Q233 117 233 57Q233 -38 188.5 -88Q144 -138 66 -152Z" glyph-name="quotesinglbase" horiz-adv-x="299" unicode="&#8218;" /><glyph d="M57 1341V1434H164V1341L145 1075H76Z" glyph-name="quotesingle" horiz-adv-x="221" unicode="&apos;" /><glyph d="M250 883Q281 920 318 954.5Q355 989 399 1016Q443 1043 493 1059Q543 1075 600 1075Q620 1075 633 1073Q646 1071 649 1069V985Q642 985 634 986Q627 986 619 986.5Q611 987 604 987Q546 987 495.5 970Q445 953 401 924.5Q357 896 319.5 860Q282 824 250 786V0H147V1067H195Q212 1067 222.5 1063.5Q233 1060 239 1048Q245 1036 247.5 1012.5Q250 989 250 950Z" glyph-name="r" horiz-adv-x="702" unicode="r" /><glyph d="M438 717Q364 717 297 741.5Q230 766 178.5 813Q127 860 96.5 928Q66 996 66 1083Q66 1171 96.5 1239Q127 1307 178.5 1354Q230 1401 297 1425.5Q364 1450 438 1450Q511 1450 579 1425.5Q647 1401 699 1354Q751 1307 782 1239Q813 1171 813 1083Q813 996 782 928Q751 860 699 813Q647 766 579 741.5Q511 717 438 717ZM434 778Q497 778 552 798Q607 818 648.5 856.5Q690 895 713.5 952Q737 1009 737 1083Q737 1158 713.5 1215.5Q690 1273 648.5 1311.5Q607 1350 552 1369.5Q497 1389 434 1389Q371 1389 316 1369.5Q261 1350 219.5 1311.5Q178 1273 154.5 1215.5Q131 1158 131 1083Q131 1009 154.5 952Q178 895 219.5 856.5Q261 818 316 798Q371 778 434 778ZM446 1049H379V893H299V1288H453Q528 1288 563 1257Q598 1226 598 1169Q598 1131 578.5 1103Q559 1075 524 1061L606 926V893H535ZM446 1104Q487 1104 503.5 1121Q520 1138 520 1169Q520 1197 504 1214Q488 1231 446 1231H379V1104Z" glyph-name="registered" horiz-adv-x="877" unicode="&#174;" /><glyph d="M424 1176Q389 1176 356.5 1188Q324 1200 299 1222.5Q274 1245 259 1277.5Q244 1310 244 1350Q244 1390 259 1422.5Q274 1455 299 1478Q324 1501 356.5 1513.5Q389 1526 424 1526Q458 1526 490.5 1513.5Q523 1501 547.5 1478Q572 1455 587 1422.5Q602 1390 602 1350Q602 1310 587 1277.5Q572 1245 547.5 1222.5Q523 1200 490.5 1188Q458 1176 424 1176ZM424 1243Q467 1243 497.5 1272.5Q528 1302 528 1350Q528 1399 497.5 1429.5Q467 1460 424 1460Q379 1460 349 1429.5Q319 1399 319 1350Q319 1302 349 1272.5Q379 1243 424 1243Z" glyph-name="ring" horiz-adv-x="848" unicode="&#730;" /><glyph d="M424 1489Q389 1489 356.5 1501Q324 1513 299 1535.5Q274 1558 259 1590Q244 1622 244 1663Q244 1703 259 1735.5Q274 1768 299 1791Q324 1814 356.5 1826.5Q389 1839 424 1839Q458 1839 490.5 1826.5Q523 1814 547.5 1791Q572 1768 587 1735.5Q602 1703 602 1663Q602 1622 587 1590Q572 1558 547.5 1535.5Q523 1513 490.5 1501Q458 1489 424 1489ZM424 1556Q467 1556 497.5 1584.5Q528 1613 528 1663Q528 1687 520 1707Q512 1727 497.5 1741.5Q483 1756 464 1764Q445 1772 424 1772Q379 1772 349 1741.5Q319 1711 319 1663Q319 1613 349 1584.5Q379 1556 424 1556Z" glyph-name="ring.cap" horiz-adv-x="848" /><glyph d="M416 -8Q347 -8 293.5 1.5Q240 11 198.5 25.5Q157 40 126 57.5Q95 75 72 92V176H113Q132 158 159.5 139.5Q187 121 224 106Q261 91 307.5 81.5Q354 72 412 72Q560 72 631 131Q702 190 702 301Q702 348 688 382Q674 416 640.5 440.5Q607 465 552 482Q497 499 416 512Q339 524 277.5 545Q216 566 172.5 599Q129 632 105.5 680.5Q82 729 82 797Q82 866 108 918.5Q134 971 181 1007Q228 1043 294 1061Q360 1079 440 1079Q498 1079 545.5 1072Q593 1065 631 1053.5Q669 1042 698 1028Q727 1014 750 999V915H709Q687 933 662 948.5Q637 964 605.5 975Q574 986 534 992.5Q494 999 442 999Q311 999 244.5 950.5Q178 902 178 805Q178 759 192.5 726Q207 693 240 669.5Q273 646 326 629.5Q379 613 457 600Q541 587 605.5 566.5Q670 546 714 512.5Q758 479 780.5 429.5Q803 380 803 309Q803 235 780 176.5Q757 118 709.5 77Q662 36 589 14Q516 -8 416 -8Z" glyph-name="s" horiz-adv-x="874" unicode="s" /><glyph d="M416 -8Q347 -8 293.5 1.5Q240 11 198.5 25.5Q157 40 126 57.5Q95 75 72 92V176H113Q132 158 159.5 139.5Q187 121 224 106Q261 91 307.5 81.5Q354 72 412 72Q560 72 631 131Q702 190 702 301Q702 348 688 382Q674 416 640.5 440.5Q607 465 552 482Q497 499 416 512Q339 524 277.5 545Q216 566 172.5 599Q129 632 105.5 680.5Q82 729 82 797Q82 866 108 918.5Q134 971 181 1007Q228 1043 294 1061Q360 1079 440 1079Q498 1079 545.5 1072Q593 1065 631 1053.5Q669 1042 698 1028Q727 1014 750 999V915H709Q687 933 662 948.5Q637 964 605.5 975Q574 986 534 992.5Q494 999 442 999Q311 999 244.5 950.5Q178 902 178 805Q178 759 192.5 726Q207 693 240 669.5Q273 646 326 629.5Q379 613 457 600Q541 587 605.5 566.5Q670 546 714 512.5Q758 479 780.5 429.5Q803 380 803 309Q803 235 780 176.5Q757 118 709.5 77Q662 36 589 14Q516 -8 416 -8ZM659 1397 471 1174H389L205 1397V1434H266L434 1257L602 1434H659Z" glyph-name="scaron" horiz-adv-x="874" unicode="&#353;" /><glyph d="M61 602Q61 718 133.5 786.5Q206 855 340 883Q258 925 219 987.5Q180 1050 180 1147Q180 1212 205 1266.5Q230 1321 277 1360Q324 1399 391 1420.5Q458 1442 543 1442Q657 1442 736 1416.5Q815 1391 858 1360V1276H815Q775 1310 710 1336Q645 1362 545 1362Q480 1362 430 1346.5Q380 1331 346 1303Q312 1275 294 1236Q276 1197 276 1151Q276 1103 292.5 1065.5Q309 1028 344 998.5Q379 969 435 946.5Q491 924 569 905Q654 884 728 857Q802 830 857.5 791Q913 752 945 698.5Q977 645 977 571Q977 457 909 381.5Q841 306 713 274Q748 256 776 235Q804 214 823 186Q842 158 852 122Q862 86 862 39Q862 -107 766.5 -187.5Q671 -268 481 -268Q412 -268 357.5 -258.5Q303 -249 261 -234.5Q219 -220 187 -202.5Q155 -185 131 -168V-84H172Q190 -102 218 -120.5Q246 -139 284 -154Q322 -169 370.5 -178.5Q419 -188 479 -188Q619 -188 690.5 -134.5Q762 -81 762 31Q762 84 743.5 119.5Q725 155 684.5 181.5Q644 208 581 229.5Q518 251 430 276Q343 301 274 330Q205 359 158 397Q111 435 86 485Q61 535 61 602ZM596 322Q661 329 713 347Q765 365 801.5 395Q838 425 857.5 466Q877 507 877 559Q877 611 855 651Q833 691 791 721.5Q749 752 687 774.5Q625 797 545 815L471 834Q308 821 235 765Q162 709 162 618Q162 570 178.5 532.5Q195 495 230.5 465Q266 435 322.5 410Q379 385 459 362Z" glyph-name="section" horiz-adv-x="1038" unicode="&#167;" /><glyph d="M207 -102Q247 -94 270 -74Q293 -54 293 -27Q293 -5 282.5 1.5Q272 8 260 16Q243 27 235 41Q227 55 227 78Q227 109 249 129.5Q271 150 303 150Q335 150 360 125Q385 100 385 41Q385 -11 372.5 -48Q360 -85 337 -109.5Q314 -134 281 -147.5Q248 -161 207 -166ZM307 629Q273 629 251 652Q229 675 229 707Q229 741 251 763.5Q273 786 307 786Q339 786 362 763.5Q385 741 385 707Q385 675 362 652Q339 629 307 629Z" glyph-name="semicolon" horiz-adv-x="614" unicode=";" /><glyph d="M360 59 991 1335V1339H166V1434H1077V1329L455 0H360Z" glyph-name="seven" horiz-adv-x="1229" unicode="7" /><glyph d="M643 -8Q536 -8 442.5 32Q349 72 280 157Q211 242 171 373Q131 504 131 686Q131 873 178.5 1014.5Q226 1156 310 1251Q394 1346 509.5 1394Q625 1442 762 1442Q813 1442 854 1437Q895 1432 928 1424Q961 1416 988.5 1404.5Q1016 1393 1040 1380V1290H989Q960 1313 902.5 1334.5Q845 1356 758 1356Q642 1356 547 1313Q452 1270 384 1185.5Q316 1101 278.5 975.5Q241 850 240 686V678Q278 722 326.5 757.5Q375 793 430.5 818.5Q486 844 548.5 858Q611 872 678 872Q767 872 846.5 848Q926 824 986 773.5Q1046 723 1081 644.5Q1116 566 1116 457Q1116 349 1081.5 262.5Q1047 176 985 116Q923 56 835.5 24Q748 -8 643 -8ZM655 786Q590 786 531 770.5Q472 755 420 728Q368 701 323.5 663Q279 625 244 580Q254 445 287 350Q320 255 372.5 194.5Q425 134 493.5 106Q562 78 643 78Q727 78 795 103Q863 128 910 176.5Q957 225 982.5 295Q1008 365 1008 455Q1008 544 982 607Q956 670 909 709.5Q862 749 797.5 767.5Q733 786 655 786Z" glyph-name="six" horiz-adv-x="1229" unicode="6" /><glyph d="M600 1489 111 -100H23V-72L508 1518H600Z" glyph-name="slash" horiz-adv-x="627" unicode="/" /><glyph glyph-name="space" horiz-adv-x="614" unicode=" " /><glyph d="M152 88Q191 111 223.5 140.5Q256 170 280 206.5Q304 243 317 288Q330 333 330 387Q330 459 320.5 528Q311 597 299 664H160V745H283Q266 829 252 905.5Q238 982 238 1057Q238 1143 266.5 1214Q295 1285 349.5 1335.5Q404 1386 484.5 1414Q565 1442 670 1442Q791 1442 879.5 1407Q968 1372 1036 1313V1233H981Q954 1259 922.5 1281Q891 1303 853.5 1318.5Q816 1334 771 1343Q726 1352 672 1352Q587 1352 525.5 1331.5Q464 1311 424 1272.5Q384 1234 365 1179.5Q346 1125 346 1057Q346 982 359 905.5Q372 829 389 745H807V664H403Q416 597 424 529Q432 461 432 387Q432 333 421 290Q410 247 390.5 211.5Q371 176 344.5 146.5Q318 117 287 92H1059V0H152Z" glyph-name="sterling" horiz-adv-x="1229" unicode="&#163;" /><glyph d="M25 1067H166V1364H268V1067H553V989H268V244Q268 196 279.5 163.5Q291 131 314 111.5Q337 92 371.5 84Q406 76 453 76H575V4Q551 -1 508.5 -4.5Q466 -8 418 -8Q356 -8 309 5.5Q262 19 230.5 48Q199 77 182.5 122Q166 167 166 231V989H25Z" glyph-name="t" horiz-adv-x="608" unicode="t" /><glyph d="M250 877Q281 914 322 950Q363 986 413.5 1014.5Q464 1043 524 1061Q584 1079 655 1079Q731 1079 804.5 1053.5Q878 1028 936 967.5Q994 907 1029.5 805.5Q1065 704 1065 551Q1065 393 1024.5 286.5Q984 180 918.5 116Q853 52 771 25Q689 -2 606 -2Q542 -2 490 7Q438 16 395 32.5Q352 49 316.5 72Q281 95 250 123V-332H147V1434H193Q211 1434 222 1430.5Q233 1427 239 1416Q245 1405 247.5 1384Q250 1363 250 1329ZM639 995Q574 995 518.5 976.5Q463 958 414.5 927Q366 896 325 857Q284 818 250 776V221Q281 186 316.5 160Q352 134 393 116Q434 98 482 89Q530 80 588 80Q654 80 720.5 100Q787 120 840.5 172Q894 224 927.5 313.5Q961 403 961 541Q961 632 947.5 701Q934 770 910.5 820.5Q887 871 855.5 904.5Q824 938 788.5 958Q753 978 714.5 986.5Q676 995 639 995Z" glyph-name="thorn" horiz-adv-x="1133" unicode="&#254;" /><glyph d="M563 -8Q495 -8 435.5 2.5Q376 13 325 31.5Q274 50 231.5 74.5Q189 99 156 127V211H211Q235 186 269 162.5Q303 139 346.5 120.5Q390 102 442.5 91Q495 80 557 80Q651 80 721.5 103Q792 126 839 169Q886 212 910 273.5Q934 335 934 412Q934 491 905.5 545.5Q877 600 829 634Q781 668 716.5 683Q652 698 580 698H451V791H563Q639 791 701.5 808.5Q764 826 809 861Q854 896 878.5 949Q903 1002 903 1073Q903 1209 825 1281.5Q747 1354 588 1354Q527 1354 477 1344.5Q427 1335 386 1319.5Q345 1304 313 1283.5Q281 1263 256 1241H205V1315Q276 1375 371.5 1408.5Q467 1442 592 1442Q794 1442 901 1350.5Q1008 1259 1008 1079Q1008 1011 989 957.5Q970 904 937 863.5Q904 823 858.5 795.5Q813 768 760 752V748Q822 733 874.5 706Q927 679 964.5 638Q1002 597 1023 540Q1044 483 1044 410Q1044 311 1012.5 233Q981 155 920 101.5Q859 48 769.5 20Q680 -8 563 -8Z" glyph-name="three" horiz-adv-x="1229" unicode="3" /><glyph d="M254 664Q176 664 116 686Q56 708 20 739V803H63Q89 778 135.5 757.5Q182 737 250 737Q340 737 388 778Q436 819 436 893Q436 932 420.5 958.5Q405 985 379.5 1001.5Q354 1018 322 1025Q290 1032 256 1032H180V1100H250Q325 1100 372.5 1134.5Q420 1169 420 1237Q420 1300 379.5 1333Q339 1366 260 1366Q203 1366 158.5 1348Q114 1330 88 1307H45V1368Q82 1396 140 1418Q198 1440 270 1440Q324 1440 368 1427.5Q412 1415 443.5 1390.5Q475 1366 492.5 1329.5Q510 1293 510 1245Q510 1173 473 1133Q436 1093 377 1073V1069Q446 1052 487 1009.5Q528 967 528 887Q528 833 509 791.5Q490 750 454 721.5Q418 693 367.5 678.5Q317 664 254 664ZM1171 0V188H780V266L1174 764H1262V258H1372V188H1262V0ZM862 258H1171V641H1167L862 262ZM283 -70H184L1194 1493H1292Z" glyph-name="threequarters" horiz-adv-x="1413" unicode="&#190;" /><glyph d="M160 1239Q165 1267 177.5 1291Q190 1315 209 1333Q228 1351 253 1361.5Q278 1372 309 1372Q343 1372 372.5 1359.5Q402 1347 429 1332Q456 1317 480 1304.5Q504 1292 526 1292Q561 1292 582.5 1316Q604 1340 610 1378H680V1339Q674 1312 661.5 1287.5Q649 1263 630.5 1245Q612 1227 587.5 1216.5Q563 1206 532 1206Q497 1206 467 1219Q437 1232 410.5 1247Q384 1262 360.5 1275Q337 1288 315 1288Q280 1288 258 1264Q236 1240 229 1202H160Z" glyph-name="tilde" horiz-adv-x="848" unicode="&#732;" /><glyph d="M160 1538Q165 1565 177.5 1589Q190 1613 209 1631.5Q228 1650 253 1660.5Q278 1671 309 1671Q343 1671 372.5 1658Q402 1645 429 1630Q456 1615 480 1602Q504 1589 526 1589Q561 1589 582.5 1613.5Q604 1638 610 1675H680V1638Q674 1610 661.5 1585.5Q649 1561 630.5 1543Q612 1525 587.5 1515Q563 1505 532 1505Q497 1505 467 1517.5Q437 1530 410.5 1545Q384 1560 360.5 1572.5Q337 1585 315 1585Q280 1585 258 1562Q236 1539 229 1499H160Z" glyph-name="tilde.cap" horiz-adv-x="848" /><glyph d="M217 872V1360H43V1434H487V1360H311V872ZM586 1434H725L872 1012H874L1024 1434H1165V872H1075V1350H1073L903 872H836L668 1350H666V872H586Z" glyph-name="trademark" horiz-adv-x="1268" unicode="&#8482;" /><glyph d="M1044 0H152V92L584 520Q662 598 725.5 667.5Q789 737 834.5 802.5Q880 868 905 932Q930 996 930 1063Q930 1198 851 1275Q772 1352 618 1352Q553 1352 500 1340Q447 1328 404 1307.5Q361 1287 326.5 1260Q292 1233 264 1204H211V1282Q244 1313 287 1341.5Q330 1370 382 1392.5Q434 1415 495 1428.5Q556 1442 625 1442Q726 1442 803.5 1416Q881 1390 933 1341Q985 1292 1011.5 1221.5Q1038 1151 1038 1063Q1038 985 1008 910Q978 835 926.5 761.5Q875 688 806.5 614.5Q738 541 662 465L281 92H1044Z" glyph-name="two" horiz-adv-x="1229" unicode="2" /><glyph d="M870 156Q826 122 774.5 91.5Q723 61 666 38Q609 15 548.5 1.5Q488 -12 426 -12Q364 -12 311.5 2Q259 16 220 48Q181 80 159 133.5Q137 187 137 266V1067H242V276Q242 215 257 175.5Q272 136 299 113Q326 90 362 81Q398 72 440 72Q501 72 559 86Q617 100 671 124Q725 148 775 178.5Q825 209 870 242V1067H973V0H926Q909 0 898 4Q887 8 881 20Q875 32 872.5 54.5Q870 77 870 115Z" glyph-name="u" horiz-adv-x="1124" unicode="u" /><glyph d="M870 156Q826 122 774.5 91.5Q723 61 666 38Q609 15 548.5 1.5Q488 -12 426 -12Q364 -12 311.5 2Q259 16 220 48Q181 80 159 133.5Q137 187 137 266V1067H242V276Q242 215 257 175.5Q272 136 299 113Q326 90 362 81Q398 72 440 72Q501 72 559 86Q617 100 671 124Q725 148 775 178.5Q825 209 870 242V1067H973V0H926Q909 0 898 4Q887 8 881 20Q875 32 872.5 54.5Q870 77 870 115ZM522 1174V1206L675 1434H778V1393L585 1174Z" glyph-name="uacute" horiz-adv-x="1124" unicode="&#250;" /><glyph d="M870 156Q826 122 774.5 91.5Q723 61 666 38Q609 15 548.5 1.5Q488 -12 426 -12Q364 -12 311.5 2Q259 16 220 48Q181 80 159 133.5Q137 187 137 266V1067H242V276Q242 215 257 175.5Q272 136 299 113Q326 90 362 81Q398 72 440 72Q501 72 559 86Q617 100 671 124Q725 148 775 178.5Q825 209 870 242V1067H973V0H926Q909 0 898 4Q887 8 881 20Q875 32 872.5 54.5Q870 77 870 115ZM330 1212 518 1434H600L784 1212V1174H723L555 1352L387 1174H330Z" glyph-name="ucircumflex" horiz-adv-x="1124" unicode="&#251;" /><glyph d="M870 156Q826 122 774.5 91.5Q723 61 666 38Q609 15 548.5 1.5Q488 -12 426 -12Q364 -12 311.5 2Q259 16 220 48Q181 80 159 133.5Q137 187 137 266V1067H242V276Q242 215 257 175.5Q272 136 299 113Q326 90 362 81Q398 72 440 72Q501 72 559 86Q617 100 671 124Q725 148 775 178.5Q825 209 870 242V1067H973V0H926Q909 0 898 4Q887 8 881 20Q875 32 872.5 54.5Q870 77 870 115ZM411 1231Q382 1231 362 1251Q342 1271 342 1298Q342 1327 362 1347.5Q382 1368 411 1368Q440 1368 460.5 1347.5Q481 1327 481 1298Q481 1271 460.5 1251Q440 1231 411 1231ZM704 1231Q676 1231 656.5 1251Q637 1271 637 1298Q637 1327 656.5 1347.5Q676 1368 704 1368Q733 1368 753.5 1347.5Q774 1327 774 1298Q774 1271 753.5 1251Q733 1231 704 1231Z" glyph-name="udieresis" horiz-adv-x="1124" unicode="&#252;" /><glyph d="M870 156Q826 122 774.5 91.5Q723 61 666 38Q609 15 548.5 1.5Q488 -12 426 -12Q364 -12 311.5 2Q259 16 220 48Q181 80 159 133.5Q137 187 137 266V1067H242V276Q242 215 257 175.5Q272 136 299 113Q326 90 362 81Q398 72 440 72Q501 72 559 86Q617 100 671 124Q725 148 775 178.5Q825 209 870 242V1067H973V0H926Q909 0 898 4Q887 8 881 20Q875 32 872.5 54.5Q870 77 870 115ZM533 1174 340 1393V1434H440L594 1206V1174Z" glyph-name="ugrave" horiz-adv-x="1124" unicode="&#249;" /><glyph d="M-4 -332V-252H676V-332Z" glyph-name="underscore" horiz-adv-x="672" unicode="_" /><glyph glyph-name="uni00A0" horiz-adv-x="614" unicode="&#160;" /><glyph d="M53 1030V1067H145L512 139H516L881 1067H965V1030L559 0H463Z" glyph-name="v" horiz-adv-x="1018" unicode="v" /><glyph d="M57 1028V1067H150L418 156H422L705 1067H791L1067 156H1071L1339 1067H1423V1028L1114 0H1024L745 903H741L461 0H367Z" glyph-name="w" horiz-adv-x="1481" unicode="w" /><glyph d="M57 41 414 555 72 1028V1067H164L487 621L791 1067H874V1028L553 557L926 41V0H834L481 492L141 0H57Z" glyph-name="x" horiz-adv-x="981" unicode="x" /><glyph d="M315 -299 477 74 51 1036V1067H145L526 195H528L889 1067H981V1036L406 -332H315Z" glyph-name="y" horiz-adv-x="1032" unicode="y" /><glyph d="M315 -299 477 74 51 1036V1067H145L526 195H528L889 1067H981V1036L406 -332H315ZM490 1174V1206L643 1434H746V1393L553 1174Z" glyph-name="yacute" horiz-adv-x="1032" unicode="&#253;" /><glyph d="M315 -299 477 74 51 1036V1067H145L526 195H528L889 1067H981V1036L406 -332H315ZM378 1231Q349 1231 329 1251Q309 1271 309 1298Q309 1327 329 1347.5Q349 1368 378 1368Q407 1368 427.5 1347.5Q448 1327 448 1298Q448 1271 427.5 1251Q407 1231 378 1231ZM671 1231Q643 1231 623.5 1251Q604 1271 604 1298Q604 1327 623.5 1347.5Q643 1368 671 1368Q700 1368 720.5 1347.5Q741 1327 741 1298Q741 1271 720.5 1251Q700 1231 671 1231Z" glyph-name="ydieresis" horiz-adv-x="1032" unicode="&#255;" /><glyph d="M215 700H539L141 1389V1434H236L623 758H625L1006 1434H1090V1389L696 700H1022V621H674V483H1022V401H674V0H563V401H215V483H563V621H215Z" glyph-name="yen" horiz-adv-x="1229" unicode="&#165;" /><glyph d="M70 80 778 987H113V1067H893V985L184 80H881V0H70Z" glyph-name="z" horiz-adv-x="938" unicode="z" /><glyph d="M70 80 778 987H113V1067H893V985L184 80H881V0H70ZM733 1397 545 1174H463L279 1397V1434H340L508 1257L676 1434H733Z" glyph-name="zcaron" horiz-adv-x="938" unicode="&#382;" /><glyph d="M614 -8Q513 -8 420.5 36Q328 80 257.5 170Q187 260 144.5 396Q102 532 102 717Q102 899 144.5 1035Q187 1171 257.5 1261.5Q328 1352 420.5 1397Q513 1442 614 1442Q715 1442 807.5 1397Q900 1352 971 1261.5Q1042 1171 1084 1035Q1126 899 1126 717Q1126 532 1084 396Q1042 260 971 170Q900 80 807.5 36Q715 -8 614 -8ZM614 80Q701 80 774.5 118.5Q848 157 901 236Q954 315 984 434.5Q1014 554 1014 715Q1014 877 984 997Q954 1117 901 1196.5Q848 1276 774.5 1315Q701 1354 614 1354Q527 1354 453 1315Q379 1276 326 1196.5Q273 1117 243 997Q213 877 213 715Q213 554 243 434.5Q273 315 326 236Q379 157 453 118.5Q527 80 614 80Z" glyph-name="zero" horiz-adv-x="1229" unicode="0" /></font>
</defs>
</svg>
